<svg width="96" height="96" viewBox="0 0 96 96" fill="none" xmlns="http://www.w3.org/2000/svg">
<g opacity="0.96">
<path d="M48 96C53.7547 96 58.7103 92.5239 60.8848 87.5625H35.1152C37.2896 92.5239 42.2454 96 48 96ZM77.0625 46.4741V40.3125C77.0625 27.2209 68.3604 16.1248 56.4375 12.5006V8.4375C56.4375 3.78506 52.6524 0 48 0C43.3475 0 39.5625 3.78506 39.5625 8.4375V12.5006C27.6393 16.1248 18.9375 27.2207 18.9375 40.3125V46.4741C18.9375 57.9739 14.5541 68.8781 6.59491 77.1784C6.21328 77.5762 5.957 78.0775 5.85793 78.6198C5.75885 79.1621 5.82135 79.7215 6.03765 80.2286C6.25395 80.7357 6.61451 81.168 7.07452 81.4719C7.53453 81.7757 8.07369 81.9376 8.62497 81.9375H87.375C87.9262 81.9375 88.4653 81.7755 88.9253 81.4717C89.3852 81.1679 89.7457 80.7355 89.962 80.2285C90.1783 79.7215 90.2408 79.162 90.1418 78.6198C90.0428 78.0775 89.7866 77.5763 89.405 77.1784C81.4458 68.8781 77.0625 57.9737 77.0625 46.4741ZM50.8125 11.3865C49.8868 11.2973 48.9487 11.25 48 11.25C47.0512 11.25 46.1132 11.2973 45.1875 11.3865V8.4375C45.1875 6.88669 46.4492 5.625 48 5.625C49.5508 5.625 50.8125 6.88669 50.8125 8.4375V11.3865ZM84.5625 40.3125C84.5625 41.8658 85.8217 43.125 87.375 43.125C88.9282 43.125 90.1875 41.8658 90.1875 40.3125C90.1875 29.0438 85.7992 18.4494 77.831 10.4813C76.7328 9.38306 74.952 9.38288 73.8536 10.4813C72.7552 11.5796 72.7552 13.3603 73.8536 14.4587C80.7594 21.3645 84.5625 30.5462 84.5625 40.3125ZM8.62497 43.125C10.1782 43.125 11.4375 41.8658 11.4375 40.3125C11.4375 30.5464 15.2407 21.3647 22.1463 14.4589C23.2447 13.3605 23.2447 11.5798 22.1463 10.4814C21.0482 9.38306 19.2673 9.38306 18.1689 10.4814C10.2007 18.4496 5.81247 29.0438 5.81247 40.3125C5.81247 41.8658 7.07172 43.125 8.62497 43.125Z" fill="white"/>
</g>
</svg>
