<svg width="20" height="20" viewBox="0 0 20 20" fill="none" xmlns="http://www.w3.org/2000/svg">
<g clip-path="url(#clip0_0_1)">
<path d="M4.16669 10.8332C4.16669 10.3911 4.34228 9.96722 4.65484 9.65466C4.9674 9.3421 5.39133 9.1665 5.83335 9.1665H14.1667C14.6087 9.1665 15.0326 9.3421 15.3452 9.65466C15.6578 9.96722 15.8334 10.3911 15.8334 10.8332V15.8332C15.8334 16.2752 15.6578 16.6991 15.3452 17.0117C15.0326 17.3242 14.6087 17.4998 14.1667 17.4998H5.83335C5.39133 17.4998 4.9674 17.3242 4.65484 17.0117C4.34228 16.6991 4.16669 16.2752 4.16669 15.8332V10.8332Z" stroke="#C10B32" stroke-width="1.66667" stroke-linecap="round" stroke-linejoin="round"/>
<path d="M9.16669 13.3333C9.16669 13.5543 9.25448 13.7663 9.41076 13.9226C9.56705 14.0789 9.77901 14.1667 10 14.1667C10.221 14.1667 10.433 14.0789 10.5893 13.9226C10.7456 13.7663 10.8334 13.5543 10.8334 13.3333C10.8334 13.1123 10.7456 12.9004 10.5893 12.7441C10.433 12.5878 10.221 12.5 10 12.5C9.77901 12.5 9.56705 12.5878 9.41076 12.7441C9.25448 12.9004 9.16669 13.1123 9.16669 13.3333Z" stroke="#C10B32" stroke-width="1.66667" stroke-linecap="round" stroke-linejoin="round"/>
<path d="M6.66669 9.16667V5.83333C6.66669 4.94928 7.01788 4.10143 7.643 3.47631C8.26812 2.85119 9.11597 2.5 10 2.5C10.8841 2.5 11.7319 2.85119 12.357 3.47631C12.9822 4.10143 13.3334 4.94928 13.3334 5.83333V9.16667" stroke="#C10B32" stroke-width="1.66667" stroke-linecap="round" stroke-linejoin="round"/>
</g>
<defs>
<clipPath id="clip0_0_1">
<rect width="20" height="20" fill="white"/>
</clipPath>
</defs>
</svg>
