<svg width="20" height="20" viewBox="0 0 20 20" fill="none" xmlns="http://www.w3.org/2000/svg">
<g clip-path="url(#clip0_220_46)">
<path d="M7.50002 4.16675H5.83335C5.39133 4.16675 4.9674 4.34234 4.65484 4.6549C4.34228 4.96746 4.16669 5.39139 4.16669 5.83341V15.8334C4.16669 16.2754 4.34228 16.6994 4.65484 17.0119C4.9674 17.3245 5.39133 17.5001 5.83335 17.5001H14.1667C14.6087 17.5001 15.0326 17.3245 15.3452 17.0119C15.6578 16.6994 15.8334 16.2754 15.8334 15.8334V5.83341C15.8334 5.39139 15.6578 4.96746 15.3452 4.6549C15.0326 4.34234 14.6087 4.16675 14.1667 4.16675H12.5" stroke="#C10B32" stroke-width="1.66667" stroke-linecap="round" stroke-linejoin="round"/>
<path d="M7.5 4.16667C7.5 3.72464 7.6756 3.30072 7.98816 2.98816C8.30072 2.67559 8.72464 2.5 9.16667 2.5H10.8333C11.2754 2.5 11.6993 2.67559 12.0118 2.98816C12.3244 3.30072 12.5 3.72464 12.5 4.16667C12.5 4.60869 12.3244 5.03262 12.0118 5.34518C11.6993 5.65774 11.2754 5.83333 10.8333 5.83333H9.16667C8.72464 5.83333 8.30072 5.65774 7.98816 5.34518C7.6756 5.03262 7.5 4.60869 7.5 4.16667Z" stroke="#C10B32" stroke-width="1.66667" stroke-linecap="round" stroke-linejoin="round"/>
<path d="M7.5 10H12.5" stroke="#C10B32" stroke-width="1.66667" stroke-linecap="round" stroke-linejoin="round"/>
<path d="M7.5 13.3333H12.5" stroke="#C10B32" stroke-width="1.66667" stroke-linecap="round" stroke-linejoin="round"/>
</g>
<defs>
<clipPath id="clip0_220_46">
<rect width="20" height="20" fill="white"/>
</clipPath>
</defs>
</svg>
