<svg width="17" height="19" viewBox="0 0 17 19" fill="none" xmlns="http://www.w3.org/2000/svg">
<path d="M11.7049 9.67407C11.4822 9.67407 11.3018 9.49359 11.3018 9.27097C11.3018 9.04835 11.4822 8.86787 11.7049 8.86787C13.9299 8.86522 15.7331 7.06211 15.7357 4.83703V1.61235H12.108C11.8853 1.61235 11.7049 1.43187 11.7049 1.20925C11.7049 0.986634 11.8853 0.806152 12.108 0.806152H16.1388C16.3615 0.806152 16.5419 0.986634 16.5419 1.20925V4.83703C16.5388 7.50715 14.375 9.67097 11.7049 9.67407Z" fill="#FFA000"/>
<path d="M4.83704 9.67456C2.16692 9.67146 0.00309873 7.50764 0 4.83752V1.20974C0 0.987123 0.180482 0.806641 0.403099 0.806641H4.43394C4.65656 0.806641 4.83704 0.987123 4.83704 1.20974C4.83704 1.43236 4.65656 1.61284 4.43394 1.61284H0.80616V4.83752C0.808843 7.06259 2.61196 8.86571 4.83704 8.8684C5.05966 8.8684 5.24014 9.04888 5.24014 9.27149C5.2401 9.49407 5.05966 9.67456 4.83704 9.67456Z" fill="#FFA000"/>
<path d="M10.4899 15.9049L10.3187 15.7393C9.65185 15.0925 9.46858 7.28414 9.45459 6.64213C9.45113 6.47879 9.30968 6.34812 9.1364 6.34814H7.86366C7.69062 6.34812 7.54929 6.47845 7.54547 6.64154C7.53211 7.28355 7.34883 15.0907 6.68128 15.7387L6.51009 15.9043C5.63635 16.7521 3 17.3647 3 18.0481C3 18.2138 3.14247 18.3481 3.31819 18.3481H13.6818C13.8575 18.3481 14 18.2138 14 18.0481C14 17.3647 11.3637 16.7521 10.4899 15.9049Z" fill="#FFA000"/>
<path d="M13.1084 0H3.43435C3.21173 0 3.03125 0.180482 3.03125 0.403099V7.8525C3.06904 10.7307 5.39312 13.0548 8.27139 13.0926C11.1497 13.0548 13.4737 10.7307 13.5115 7.85246V0.403099C13.5115 0.180482 13.331 0 13.1084 0Z" fill="#FFC107"/>
</svg>
