<svg width="64" height="64" viewBox="0 0 64 64" fill="none" xmlns="http://www.w3.org/2000/svg">
<path d="M9.12655 11.8811C8.77811 11.9114 8.45587 12.0785 8.23051 12.346C8.00514 12.6135 7.89503 12.9594 7.92432 13.3079L8.04322 14.7348C8.07299 15.0641 8.22521 15.3704 8.46982 15.593C8.71443 15.8156 9.03363 15.9383 9.36436 15.937H9.48326C9.65701 15.9221 9.82609 15.8729 9.98074 15.7923C10.1354 15.7117 10.2726 15.6013 10.3843 15.4674C10.4961 15.3335 10.5802 15.1788 10.6319 15.0123C10.6836 14.8457 10.7018 14.6706 10.6855 14.497L10.5534 13.0833C10.5231 12.7349 10.3559 12.4127 10.0885 12.1873C9.821 11.9619 9.47508 11.8518 9.12655 11.8811Z" fill="black"/>
<path d="M60.1224 37.5639L56.9384 34.38C58.9673 32.0692 60.3078 29.2358 60.8076 26.2016C61.3075 23.1674 60.9468 20.0538 59.7664 17.2143C58.586 14.3748 56.6332 11.923 54.1297 10.1373C51.6262 8.35155 48.6723 7.30341 45.6031 7.11181L45.7088 4.57523C45.7283 4.15487 45.6643 3.73482 45.5204 3.33936C45.3765 2.94391 45.1557 2.58089 44.8707 2.2713C44.5857 1.96171 44.2421 1.7117 43.8599 1.5357C43.4776 1.35971 43.0643 1.26124 42.6438 1.24597L15.6002 0.00410735C15.1809 -0.0172109 14.7615 0.0446087 14.3662 0.186009C13.9709 0.327409 13.6074 0.545596 13.2968 0.828013C12.9861 1.11043 12.7344 1.4515 12.556 1.83159C12.3777 2.21168 12.2763 2.62328 12.2577 3.04271L12.086 6.90042L5.91626 7.44209C5.07804 7.51281 4.30187 7.91237 3.75728 8.5535C3.2127 9.19462 2.94396 10.0252 3.00976 10.8638L6.97317 55.5842C7.05041 56.4271 7.45744 57.2055 8.10569 57.7498C8.75394 58.2941 9.59094 58.5604 10.4345 58.4907L28.6926 56.8921L34.717 62.9825C35.1495 63.4127 35.6869 63.7224 36.2759 63.8809C36.8643 64.0397 37.4843 64.0397 38.0727 63.8809L54.2433 59.5476C54.8298 59.3913 55.3646 59.0831 55.7937 58.6539C56.2229 58.2248 56.5312 57.6899 56.6874 57.1035L61.0207 40.946C61.1795 40.3529 61.1801 39.7286 61.0225 39.1352C60.8648 38.5418 60.5545 38.0001 60.1224 37.5639ZM55.0889 32.5304L53.3846 30.8262C53.9402 30.1457 54.4188 29.4057 54.8114 28.6199L57.0838 29.4257C56.5559 30.5426 55.8853 31.5862 55.0889 32.5304ZM45.286 14.8272C46.8681 14.9493 48.3877 15.4976 49.6832 16.4138C50.9787 17.3301 52.0019 18.5801 52.6441 20.0311C53.2863 21.4822 53.5235 23.08 53.3306 24.6551C53.1376 26.2301 52.5217 27.7235 51.5482 28.9766L48.3246 25.753C47.8918 25.3242 47.3546 25.0158 46.7661 24.8583C46.1776 24.7007 45.5581 24.6994 44.969 24.8546H44.8236L45.286 14.8272ZM57.9821 26.9552L55.7362 26.1493C55.9754 25.0345 56.0554 23.8913 55.974 22.754L58.3256 22.3313C58.4629 23.8744 58.3333 25.4297 57.9425 26.9288L57.9821 26.9552ZM57.9029 19.8079L55.5248 20.2439C55.1957 19.1768 54.7152 18.1624 54.098 17.2317L55.8551 15.6331C56.7528 16.8932 57.4317 18.2957 57.8632 19.7815L57.9029 19.8079ZM50.4649 11.0488C51.8611 11.7158 53.1377 12.6085 54.2433 13.691L52.3937 15.2632C51.5739 14.504 50.6483 13.8676 49.6458 13.374L50.4649 11.0488ZM47.9283 10.1372L47.1224 12.4096C46.5437 12.2878 45.9561 12.2127 45.3653 12.185L45.471 9.80692C46.2985 9.84193 47.121 9.95248 47.9283 10.1372ZM14.9 3.16162C14.9034 3.08872 14.9211 3.01721 14.9522 2.95118C14.9832 2.88515 15.027 2.82589 15.081 2.77681C15.135 2.72772 15.1981 2.68976 15.2668 2.66512C15.3355 2.64047 15.4084 2.62961 15.4813 2.63316L42.5513 3.9543C42.6236 3.95597 42.6948 3.97211 42.7608 4.00175C42.8267 4.03139 42.8861 4.07394 42.9353 4.12689C42.9846 4.17983 43.0227 4.2421 43.0475 4.31003C43.0723 4.37795 43.0833 4.45016 43.0797 4.52238L42.1021 25.6605L40.781 26.0172L39.1956 7.83843C39.1184 6.99548 38.7113 6.21716 38.0631 5.67283C37.4148 5.1285 36.5778 4.86222 35.7342 4.93194L14.7414 6.68904L14.9 3.16162ZM10.1571 55.9013C10.014 55.9125 9.87217 55.8678 9.76131 55.7767C9.65046 55.6855 9.57923 55.555 9.56259 55.4124L5.65203 10.6921C5.64101 10.5469 5.68746 10.4033 5.78137 10.2921C5.87528 10.1809 6.00913 10.111 6.15406 10.0976L35.972 7.4553C36.0432 7.4499 36.1148 7.45862 36.1825 7.48096C36.2503 7.5033 36.313 7.53882 36.3671 7.58547C36.4211 7.63212 36.4654 7.68899 36.4973 7.75281C36.5293 7.81662 36.5483 7.88613 36.5533 7.95733L38.1916 26.6117L33.779 27.7875C33.4552 27.3627 33.0877 26.973 32.6824 26.6249L22.8268 18.3943C22.6941 18.2823 22.5406 18.1975 22.3752 18.1449C22.2097 18.0922 22.0355 18.0727 21.8625 18.0874C21.6895 18.1021 21.5211 18.1508 21.3669 18.2307C21.2127 18.3105 21.0758 18.42 20.964 18.5528L12.6937 28.3953C11.5049 29.7874 10.8979 31.5839 10.9988 33.4117C11.0997 35.2396 11.9006 36.9584 13.2353 38.2113C14.05 38.9349 15.0228 39.4576 16.0759 39.7375C17.1289 40.0174 18.2329 40.0467 19.2993 39.8231C18.9487 40.4791 18.5035 41.08 17.9782 41.6066C17.7791 41.7962 17.644 42.0432 17.5919 42.3131C17.5398 42.5831 17.5733 42.8626 17.6876 43.1127C17.7899 43.3404 17.9546 43.5346 18.1627 43.6725C18.3708 43.8105 18.6138 43.8866 18.8634 43.8922H18.9823L23.0646 43.5355L21.968 47.8556C21.8186 48.4316 21.8191 49.0363 21.9694 49.6121C22.1197 50.1879 22.4149 50.7157 22.8268 51.1452L26.2221 54.4612L10.1571 55.9013ZM23.8308 40.8139L21.6774 40.9989C21.8272 40.7462 21.9639 40.4861 22.0869 40.2194C22.2929 39.8123 22.3715 39.3526 22.3126 38.9002C22.2537 38.4478 22.06 38.0236 21.7567 37.6828C21.4613 37.3503 21.0734 37.1136 20.6427 37.0029C20.2119 36.8923 19.758 36.9129 19.339 37.0619C18.6101 37.33 17.8222 37.3954 17.0591 37.2512C16.296 37.107 15.5864 36.7584 15.0057 36.2428C14.183 35.4476 13.6969 34.367 13.6477 33.2239C13.5985 32.0808 13.99 30.9624 14.7414 30.0995L22.153 21.2611L30.8857 28.5934L28.7587 29.1615C28.1694 29.3194 27.6321 29.6295 27.2007 30.0609C26.7694 30.4923 26.4592 31.0296 26.3013 31.6188L23.8308 40.8139ZM54.1376 56.4033C54.099 56.5456 54.0238 56.6754 53.9195 56.7797C53.8152 56.884 53.6855 56.9592 53.5431 56.9978L37.3592 61.3311C37.2155 61.3595 37.0669 61.3501 36.928 61.3038C36.789 61.2575 36.6645 61.1758 36.5666 61.0669L24.7424 49.1767C24.6348 49.0758 24.557 48.9473 24.5174 48.8052C24.4777 48.6631 24.4779 48.5128 24.5178 48.3708L28.8511 32.2001C28.8898 32.0578 28.965 31.928 29.0693 31.8237C29.1736 31.7195 29.3033 31.6443 29.4456 31.6056L45.6031 27.378C45.7421 27.3449 45.8869 27.3449 46.0259 27.378C46.1708 27.4185 46.3028 27.4959 46.409 27.6026L58.2992 39.4928C58.4056 39.5945 58.4826 39.7231 58.5222 39.8649C58.5617 40.0067 58.5622 40.1566 58.5238 40.2987L54.1376 56.4033Z" fill="black"/>
<path d="M41.3226 42.2805L34.4395 35.4106C34.3163 35.2857 34.1697 35.1863 34.0081 35.118C33.8465 35.0497 33.673 35.014 33.4976 35.0127C33.3222 35.0115 33.1482 35.0448 32.9857 35.1108C32.8231 35.1768 32.6752 35.2742 32.5503 35.3974C32.4253 35.5206 32.3259 35.6671 32.2576 35.8288C32.1894 35.9904 32.1536 36.1638 32.1524 36.3393C32.1511 36.5147 32.1845 36.6886 32.2505 36.8512C32.3165 37.0137 32.4139 37.1617 32.537 37.2866L39.4201 44.1565C39.6023 44.3434 39.7333 44.5741 39.8004 44.8263C39.8675 45.0786 39.8685 45.3438 39.8033 45.5965L37.2799 54.9898C37.234 55.1581 37.2219 55.3338 37.2443 55.5068C37.2667 55.6798 37.3231 55.8467 37.4103 55.9977C37.4975 56.1488 37.6138 56.2811 37.7524 56.387C37.891 56.4929 38.0492 56.5703 38.2179 56.6148C38.332 56.6285 38.4473 56.6285 38.5614 56.6148C38.8597 56.625 39.1526 56.5339 39.3925 56.3564C39.6324 56.1789 39.8051 55.9254 39.8825 55.6372L42.4059 46.2439C42.5877 45.5462 42.5834 44.8131 42.3933 44.1176C42.2032 43.4221 41.834 42.7887 41.3226 42.2805Z" fill="black"/>
<path d="M53.7281 41.0783C53.6353 40.7429 53.414 40.4578 53.1122 40.2846C52.8105 40.1115 52.4526 40.0643 52.1163 40.1535L45.9994 41.7785C45.8319 41.8243 45.6751 41.9028 45.538 42.0093C45.4008 42.1158 45.286 42.2483 45.2001 42.3992C45.1143 42.5502 45.059 42.7165 45.0374 42.8889C45.0159 43.0612 45.0285 43.236 45.0746 43.4035C45.1521 43.6917 45.3248 43.9452 45.5647 44.1227C45.8046 44.3002 46.0975 44.3913 46.3958 44.3811C46.5099 44.3941 46.6251 44.3941 46.7393 44.3811L52.8429 42.7429C53.0112 42.6931 53.1679 42.6103 53.3039 42.4993C53.4398 42.3882 53.5523 42.2513 53.6347 42.0963C53.7171 41.9413 53.7678 41.7715 53.7838 41.5967C53.7999 41.4219 53.7809 41.2456 53.7281 41.0783Z" fill="black"/>
<path d="M32.6825 51.6735C32.5713 52.1922 32.5852 52.73 32.7231 53.2422C32.8609 53.7545 33.1187 54.2267 33.4752 54.6196C34.1621 55.3198 34.9284 55.1216 35.1794 54.1704C35.2906 53.6517 35.2767 53.1139 35.1388 52.6016C35.001 52.0893 34.7432 51.6172 34.3867 51.2243C33.6997 50.4977 32.9335 50.7355 32.6825 51.6735Z" fill="black"/>
<path d="M31.718 42.0688C31.8291 41.5501 31.8152 41.0123 31.6774 40.5C31.5396 39.9877 31.2818 39.5156 30.9253 39.1227C30.2383 38.4357 29.4721 38.6339 29.221 39.5719C29.1099 40.0906 29.1238 40.6284 29.2616 41.1406C29.3995 41.6529 29.6573 42.1251 30.0137 42.518C30.7536 43.2182 31.467 43.02 31.718 42.0688Z" fill="black"/>
<path d="M33.3958 48.1196C33.507 47.6009 33.4931 47.0631 33.3553 46.5508C33.2174 46.0385 32.9596 45.5664 32.6032 45.1735C31.9162 44.4865 31.1499 44.6846 30.8989 45.6226C30.7877 46.1414 30.8017 46.6791 30.9395 47.1914C31.0773 47.7037 31.3351 48.1759 31.6916 48.5688C32.4314 49.269 33.1977 49.0708 33.3958 48.1196Z" fill="black"/>
<path d="M45.286 36.3219C45.4667 36.2903 45.6342 36.2063 45.7677 36.0804C45.9012 35.9545 45.9949 35.7922 46.0371 35.6136C46.0793 35.435 46.0681 35.248 46.0051 35.0756C45.942 34.9033 45.8298 34.7533 45.6823 34.6441C45.2888 34.2886 44.8167 34.0314 44.3046 33.8936C43.7924 33.7558 43.255 33.7413 42.7362 33.8514C42.5402 33.8613 42.3524 33.9333 42.2001 34.0569C42.0477 34.1806 41.9386 34.3496 41.8886 34.5393C41.8386 34.7291 41.8502 34.9298 41.9218 35.1125C41.9935 35.2953 42.1214 35.4504 42.287 35.5557C42.6881 35.9157 43.1703 36.1734 43.6925 36.3069C44.2146 36.4403 44.7614 36.4454 45.286 36.3219Z" fill="black"/>
<path d="M53.2128 45.1077C52.7081 45.2727 52.2496 45.5551 51.8753 45.9318C51.5009 46.3084 51.2213 46.7686 51.0594 47.2744C50.8084 48.2124 51.3765 48.7672 52.3805 48.5162C52.8848 48.3503 53.3427 48.0675 53.7169 47.691C54.0912 47.3145 54.3711 46.8548 54.534 46.3496C54.7718 45.4116 54.2037 44.8567 53.2128 45.1077Z" fill="black"/>
<path d="M44.2027 53.8669C43.6999 54.0315 43.2429 54.3123 42.8688 54.6864C42.4946 55.0605 42.2139 55.5175 42.0493 56.0203C41.7982 56.9583 42.3663 57.5132 43.3704 57.2622C43.8762 57.1003 44.3363 56.8207 44.713 56.4463C45.0896 56.072 45.3721 55.6135 45.5371 55.1088C45.722 54.1575 45.1539 53.6159 44.2027 53.8669Z" fill="black"/>
</svg>
