<svg width="17" height="19" viewBox="0 0 17 19" fill="none" xmlns="http://www.w3.org/2000/svg">
<path d="M15.8467 0.327223C15.6743 0.246937 15.477 0.273066 15.3314 0.395347L12.6607 2.63859V0.852737C12.6607 0.38252 12.2782 0 11.808 0H0.858256C0.388135 0 0.00561523 0.38252 0.00561523 0.852737V7.07833C0.00561523 7.54855 0.38804 7.93107 0.858256 7.93107H11.808C12.2781 7.93107 12.6607 7.54855 12.6607 7.07833V5.29257L15.3314 7.53582C15.477 7.658 15.6742 7.68423 15.8467 7.60385C16.0189 7.52356 16.126 7.35558 16.126 7.16555V0.76561C16.126 0.57549 16.0189 0.407508 15.8467 0.327223Z" fill="#EF2C2C"/>
<path d="M8.18414 14.538H5.35381C5.08967 14.538 4.87476 14.7528 4.87476 15.0169V17.8473C4.87476 18.1115 5.08967 18.3264 5.35381 18.3264H8.18414C8.44818 18.3264 8.6631 18.1115 8.6631 17.8473V15.0169C8.6631 14.7529 8.44818 14.538 8.18414 14.538Z" fill="#40424F"/>
<path d="M6.16768 16.1834C6.35858 16.1834 6.51333 16.0286 6.51333 15.8377C6.51333 15.6468 6.35858 15.4921 6.16768 15.4921C5.97678 15.4921 5.82202 15.6468 5.82202 15.8377C5.82202 16.0286 5.97678 16.1834 6.16768 16.1834Z" fill="white"/>
<path d="M6.16768 17.3733C6.35856 17.3733 6.51333 17.2185 6.51333 17.0277C6.51333 16.8368 6.35856 16.682 6.16768 16.682C5.9768 16.682 5.82202 16.8368 5.82202 17.0277C5.82202 17.2185 5.9768 17.3733 6.16768 17.3733Z" fill="white"/>
<path d="M7.37111 16.1834C7.56199 16.1834 7.71676 16.0286 7.71676 15.8377C7.71676 15.6468 7.56199 15.4921 7.37111 15.4921C7.18023 15.4921 7.02545 15.6468 7.02545 15.8377C7.02545 16.0286 7.18023 16.1834 7.37111 16.1834Z" fill="white"/>
<path d="M7.37111 17.3733C7.56199 17.3733 7.71676 17.2185 7.71676 17.0277C7.71676 16.8368 7.56199 16.682 7.37111 16.682C7.18023 16.682 7.02545 16.8368 7.02545 17.0277C7.02545 17.2185 7.18023 17.3733 7.37111 17.3733Z" fill="white"/>
<path d="M3.58017 17.8512H0.646474C0.555072 17.8512 0.480678 17.7768 0.480678 17.6853V9.53649C0.480678 9.445 0.555072 9.3706 0.646474 9.3706H5.6085C5.7 9.3706 5.77439 9.445 5.77439 9.53649V13.2689C5.77439 13.4001 5.88071 13.5064 6.01192 13.5064C6.14314 13.5064 6.24945 13.4001 6.24945 13.2689V9.53649C6.24945 9.18305 5.96195 8.89554 5.6085 8.89554H0.646474C0.293028 8.89554 0.00561523 9.18305 0.00561523 9.53649V17.6853C0.00561523 18.0388 0.293028 18.3263 0.646474 18.3263H3.58017C3.71139 18.3263 3.81771 18.22 3.81771 18.0888C3.81771 17.9575 3.71139 17.8512 3.58017 17.8512Z" fill="#40424F"/>
<path d="M15.0322 10.0211C15.0274 10.0153 15.0234 10.009 15.0179 10.0036C15.0125 9.99816 15.0062 9.99407 15.0004 9.98932C14.3167 9.31359 13.3779 8.89554 12.343 8.89554C11.3084 8.89554 10.3698 9.3134 9.68605 9.98875C9.68007 9.99369 9.67361 9.99787 9.66791 10.0036C9.66221 10.0093 9.65803 10.0157 9.65308 10.0217C8.97783 10.7053 8.55997 11.644 8.55997 12.6785C8.55997 13.713 8.97774 14.6516 9.65308 15.3352C9.65803 15.3413 9.6623 15.3477 9.66791 15.3533C9.67351 15.3589 9.67997 15.3632 9.68605 15.3682C10.3697 16.0435 11.3083 16.4614 12.343 16.4614C13.3779 16.4614 14.3168 16.0433 15.0004 15.3676C15.0062 15.3627 15.0125 15.3588 15.0179 15.3533C15.0233 15.3479 15.0274 15.3417 15.0322 15.3359C15.7079 14.6522 16.126 13.7133 16.126 12.6784C16.126 11.6434 15.7079 10.7048 15.0322 10.0211ZM14.8423 14.842L14.1627 14.1624C14.4462 13.8153 14.6328 13.386 14.6802 12.9162H15.6415C15.5891 13.6497 15.2967 14.3176 14.8423 14.842ZM9.04463 12.9161H10.006C10.0534 13.3859 10.2399 13.8151 10.5235 14.1622L9.84377 14.8419C9.38933 14.3176 9.09698 13.6497 9.04463 12.9161ZM9.84377 10.5152L10.5235 11.1949C10.24 11.542 10.0534 11.9713 10.006 12.441H9.04463C9.09698 11.7074 9.38933 11.0396 9.84377 10.5152ZM12.3431 14.5526C11.3097 14.5526 10.4691 13.7119 10.4691 12.6786C10.4691 11.6452 11.3097 10.8045 12.3431 10.8045C13.3764 10.8045 14.2171 11.6452 14.2171 12.6786C14.2171 13.7119 13.3764 14.5526 12.3431 14.5526ZM13.8267 10.859C13.4796 10.5755 13.0504 10.3888 12.5806 10.3414V9.38001C13.3142 9.43236 13.982 9.72471 14.5064 10.1793L13.8267 10.859ZM12.1055 10.3414C11.6357 10.3888 11.2064 10.5754 10.8594 10.859L10.1797 10.1793C10.7041 9.72481 11.372 9.43245 12.1056 9.3801V10.3414H12.1055ZM10.8593 14.4981C11.2063 14.7817 11.6356 14.9683 12.1055 15.0157V15.9771C11.3719 15.9247 10.7039 15.6324 10.1795 15.1779L10.8593 14.4981ZM12.5806 15.0157C13.0504 14.9683 13.4796 14.7817 13.8267 14.4981L14.5064 15.1779C13.982 15.6323 13.3142 15.9247 12.5806 15.9771V15.0157ZM14.6801 12.441C14.6327 11.9712 14.4462 11.5419 14.1626 11.1948L14.8422 10.5152C15.2966 11.0396 15.5891 11.7074 15.6414 12.4411H14.6801V12.441Z" fill="#40424F"/>
<path d="M3.76458 5.45315H2.6918V2.41466C2.6918 2.28344 2.58548 2.17712 2.45427 2.17712C2.32305 2.17712 2.21674 2.28344 2.21674 2.41466V5.69059C2.21674 5.8218 2.32305 5.92812 2.45427 5.92812H3.76458C3.89579 5.92812 4.00211 5.8218 4.00211 5.69059C4.00211 5.55938 3.89579 5.45315 3.76458 5.45315Z" fill="white"/>
<path d="M4.96141 2.17712C4.8302 2.17712 4.72388 2.28344 4.72388 2.41466V5.69059C4.72388 5.8218 4.8302 5.92812 4.96141 5.92812C5.09262 5.92812 5.19894 5.8218 5.19894 5.69059V2.41466C5.19894 2.28344 5.09262 2.17712 4.96141 2.17712Z" fill="white"/>
<path d="M7.52938 2.18292C7.40064 2.15384 7.27427 2.23479 7.24567 2.36278L6.74363 4.60403L6.24158 2.36278C6.21289 2.23479 6.08652 2.15384 5.95788 2.18292C5.8299 2.21161 5.74942 2.33864 5.77802 2.46663L6.51189 5.74256C6.53622 5.85106 6.63256 5.92821 6.74363 5.92821C6.8547 5.92821 6.95114 5.85106 6.97536 5.74256L7.70924 2.46663C7.73784 2.33855 7.65727 2.21152 7.52938 2.18292Z" fill="white"/>
<path d="M9.83603 2.65219C9.96724 2.65219 10.0736 2.54587 10.0736 2.41466C10.0736 2.28344 9.96724 2.17712 9.83603 2.17712H8.52571C8.3945 2.17712 8.28818 2.28344 8.28818 2.41466V5.69059C8.28818 5.8218 8.3945 5.92812 8.52571 5.92812H9.83603C9.96724 5.92812 10.0736 5.8218 10.0736 5.69059C10.0736 5.55938 9.96724 5.45306 9.83603 5.45306H8.76324V4.29011H9.83603C9.96724 4.29011 10.0736 4.18379 10.0736 4.05257C10.0736 3.92136 9.96724 3.81504 9.83603 3.81504H8.76324V2.65209H9.83603V2.65219Z" fill="white"/>
<path d="M3.00679 11.4403C2.62845 11.7555 1.48564 12.7884 1.40811 13.824C1.3702 14.3297 1.73762 14.7922 2.24403 14.8171C2.47596 14.8285 2.68822 14.7498 2.85107 14.6136C2.90902 14.5651 2.99663 14.6161 2.98693 14.6911V14.6912C2.9571 14.9202 2.88575 15.1418 2.7762 15.3452L2.65895 15.5627C2.62997 15.6165 2.66893 15.6817 2.73002 15.6817H3.5248C3.58589 15.6817 3.62475 15.6165 3.59587 15.5627L3.47862 15.3452C3.36908 15.1418 3.29772 14.9202 3.26789 14.6912V14.6911C3.2581 14.6161 3.3457 14.5651 3.40375 14.6136C3.5667 14.7498 3.77886 14.8285 4.01079 14.8171C4.5173 14.7922 4.88462 14.3298 4.8468 13.8241C4.76927 12.7885 3.62646 11.7556 3.24812 11.4403C3.178 11.382 3.07682 11.382 3.00679 11.4403Z" fill="#40424F"/>
<path d="M12.8472 13.1827C12.5687 13.4612 12.1173 13.4612 11.8389 13.1827C11.5604 12.9042 11.5604 12.4528 11.8389 12.1744C12.1174 11.8959 12.5688 11.8959 12.8472 12.1744C13.1256 12.4528 13.1256 12.9043 12.8472 13.1827Z" fill="#40424F"/>
</svg>
