<svg width="14" height="16" viewBox="0 0 14 16" fill="none" xmlns="http://www.w3.org/2000/svg">
<g clip-path="url(#clip0_2485_50)">
<path d="M13.3936 11.4865L12.4878 10.1981C12.3641 10.023 12.2976 9.81467 12.2971 9.6011V5.90366C12.2971 4.51468 11.739 3.18259 10.7456 2.20043C9.75218 1.21827 8.40482 0.666504 6.99991 0.666504C5.59501 0.666504 4.24765 1.21827 3.25423 2.20043C2.26082 3.18259 1.70272 4.51468 1.70272 5.90366V9.6011C1.70221 9.81467 1.63567 10.023 1.51202 10.1981L0.606208 11.4865C0.469053 11.6367 0.378862 11.823 0.346541 12.0229C0.31422 12.2227 0.341155 12.4276 0.424086 12.6126C0.507018 12.7976 0.642396 12.9549 0.813848 13.0655C0.985301 13.1761 1.18548 13.2352 1.39019 13.2357H4.40429C4.52587 13.8276 4.8507 14.3598 5.32375 14.7421C5.79679 15.1243 6.38896 15.3332 6.99991 15.3332C7.61087 15.3332 8.20304 15.1243 8.67608 14.7421C9.14913 14.3598 9.47396 13.8276 9.59554 13.2357H12.6096C12.8143 13.2352 13.0145 13.1761 13.186 13.0655C13.3574 12.9549 13.4928 12.7976 13.5757 12.6126C13.6587 12.4276 13.6856 12.2227 13.6533 12.0229C13.621 11.823 13.5308 11.6367 13.3936 11.4865ZM6.99991 14.2831C6.67205 14.2822 6.35249 14.1811 6.08506 13.9935C5.81762 13.806 5.61539 13.5413 5.50611 13.2357H8.49372C8.38443 13.5413 8.18221 13.806 7.91477 13.9935C7.64734 14.1811 7.32778 14.2822 6.99991 14.2831ZM1.39019 12.1883C1.41413 12.1663 1.43546 12.1417 1.45375 12.1149L2.38076 10.7952C2.62806 10.4449 2.76114 10.0283 2.76216 9.6011V5.90366C2.76216 4.79248 3.20864 3.7268 4.00337 2.94108C4.7981 2.15535 5.87599 1.71394 6.99991 1.71394C8.12384 1.71394 9.20173 2.15535 9.99646 2.94108C10.7912 3.7268 11.2376 4.79248 11.2376 5.90366V9.6011C11.2387 10.0283 11.3717 10.4449 11.619 10.7952L12.5461 12.1149C12.5644 12.1417 12.5857 12.1663 12.6096 12.1883H1.39019Z" fill="#C10931"/>
<path d="M7 5.33301V9.33301" stroke="#C10931" stroke-width="1.3" stroke-linecap="round" stroke-linejoin="round"/>
<path d="M5 7.33301H9" stroke="#C10931" stroke-width="1.3" stroke-linecap="round" stroke-linejoin="round"/>
</g>
<defs>
<clipPath id="clip0_2485_50">
<rect width="14" height="16" fill="white"/>
</clipPath>
</defs>
</svg>
