<svg width="20" height="20" viewBox="0 0 20 20" fill="none" xmlns="http://www.w3.org/2000/svg">
<g clip-path="url(#clip0_218_8)">
<path d="M3.33331 5.83333C3.33331 5.61232 3.42111 5.40036 3.57739 5.24408C3.73367 5.0878 3.94563 5 4.16665 5H5.83331C6.05433 5 6.26629 5.0878 6.42257 5.24408C6.57885 5.40036 6.66665 5.61232 6.66665 5.83333V8.33333C6.66665 8.55435 6.57885 8.76631 6.42257 8.92259C6.26629 9.07887 6.05433 9.16667 5.83331 9.16667H4.16665C3.94563 9.16667 3.73367 9.07887 3.57739 8.92259C3.42111 8.76631 3.33331 8.55435 3.33331 8.33333V5.83333Z" stroke="#C10B32" stroke-width="1.66667" stroke-linecap="round" stroke-linejoin="round"/>
<path d="M5 3.33325V4.99992" stroke="#C10B32" stroke-width="1.66667" stroke-linecap="round" stroke-linejoin="round"/>
<path d="M5 9.16675V16.6667" stroke="#C10B32" stroke-width="1.66667" stroke-linecap="round" stroke-linejoin="round"/>
<path d="M8.33331 12.5001C8.33331 12.2791 8.42111 12.0671 8.57739 11.9108C8.73367 11.7545 8.94563 11.6667 9.16665 11.6667H10.8333C11.0543 11.6667 11.2663 11.7545 11.4226 11.9108C11.5788 12.0671 11.6666 12.2791 11.6666 12.5001V15.0001C11.6666 15.2211 11.5788 15.4331 11.4226 15.5893C11.2663 15.7456 11.0543 15.8334 10.8333 15.8334H9.16665C8.94563 15.8334 8.73367 15.7456 8.57739 15.5893C8.42111 15.4331 8.33331 15.2211 8.33331 15.0001V12.5001Z" stroke="#C10B32" stroke-width="1.66667" stroke-linecap="round" stroke-linejoin="round"/>
<path d="M10 3.33325V11.6666" stroke="#C10B32" stroke-width="1.66667" stroke-linecap="round" stroke-linejoin="round"/>
<path d="M10 15.8333V16.6666" stroke="#C10B32" stroke-width="1.66667" stroke-linecap="round" stroke-linejoin="round"/>
<path d="M13.3333 5.00008C13.3333 4.77907 13.4211 4.56711 13.5774 4.41083C13.7337 4.25455 13.9456 4.16675 14.1666 4.16675H15.8333C16.0543 4.16675 16.2663 4.25455 16.4226 4.41083C16.5788 4.56711 16.6666 4.77907 16.6666 5.00008V8.33341C16.6666 8.55443 16.5788 8.76639 16.4226 8.92267C16.2663 9.07895 16.0543 9.16675 15.8333 9.16675H14.1666C13.9456 9.16675 13.7337 9.07895 13.5774 8.92267C13.4211 8.76639 13.3333 8.55443 13.3333 8.33341V5.00008Z" stroke="#C10B32" stroke-width="1.66667" stroke-linecap="round" stroke-linejoin="round"/>
<path d="M15 3.33325V4.16659" stroke="#C10B32" stroke-width="1.66667" stroke-linecap="round" stroke-linejoin="round"/>
<path d="M15 9.16675V16.6667" stroke="#C10B32" stroke-width="1.66667" stroke-linecap="round" stroke-linejoin="round"/>
</g>
<defs>
<clipPath id="clip0_218_8">
<rect width="20" height="20" fill="white"/>
</clipPath>
</defs>
</svg>
