<svg width="14" height="14" viewBox="0 0 14 14" fill="none" xmlns="http://www.w3.org/2000/svg">
<path d="M12.1041 7.72917C12.1041 8.73868 11.8048 9.72551 11.2439 10.5649C10.6831 11.4043 9.88593 12.0585 8.95326 12.4448C8.0206 12.8311 6.99432 12.9322 6.00421 12.7353C5.0141 12.5383 4.10462 12.0522 3.39079 11.3384C2.67696 10.6245 2.19084 9.71505 1.99389 8.72494C1.79695 7.73483 1.89802 6.70855 2.28435 5.77589C2.67067 4.84322 3.32488 4.04606 4.16426 3.48521C5.00364 2.92435 5.99047 2.625 6.99998 2.625C8.35355 2.62546 9.65154 3.16337 10.6087 4.12049C11.5658 5.0776 12.1037 6.3756 12.1041 7.72917V7.72917Z" stroke="#7F00FF" stroke-linecap="round" stroke-linejoin="round"/>
<path d="M7 4.66666V7.58333" stroke="#7F00FF" stroke-linecap="round" stroke-linejoin="round"/>
<path d="M5.25 1.16666H8.75" stroke="#7F00FF" stroke-linecap="round" stroke-linejoin="round"/>
</svg>
