<svg width="24" height="24" viewBox="0 0 24 24" fill="none" xmlns="http://www.w3.org/2000/svg">
<rect width="24" height="24" rx="12" fill="#25D366"/>
<path fill-rule="evenodd" clip-rule="evenodd" d="M16.704 7.212C15.444 5.952 13.764 5.28 12 5.28C8.304 5.28 5.28 8.304 5.28 12C5.28 13.176 5.616 14.352 6.204 15.36L5.28 18.72L8.80801 17.796C9.81601 18.3 10.908 18.636 12 18.636C15.696 18.636 18.72 15.612 18.72 11.916C18.72 10.152 17.964 8.472 16.704 7.212ZM12 17.544C10.992 17.544 9.984 17.292 9.144 16.788L8.97599 16.704L6.87599 17.292L7.464 15.276L7.29599 15.024C6.70799 14.1 6.45599 13.092 6.45599 12.084C6.45599 9.06 8.976 6.54 12 6.54C13.512 6.54 14.856 7.128 15.948 8.136C17.04 9.228 17.544 10.572 17.544 12.084C17.544 15.024 15.108 17.544 12 17.544ZM15.024 13.344C14.856 13.26 14.016 12.84 13.848 12.84C13.68 12.756 13.596 12.756 13.512 12.924C13.428 13.092 13.092 13.428 13.008 13.596C12.924 13.68 12.84 13.68 12.672 13.68C12.504 13.596 12 13.428 11.328 12.84C10.824 12.42 10.488 11.832 10.404 11.664C10.32 11.496 10.404 11.412 10.488 11.328C10.572 11.244 10.656 11.16 10.74 11.076C10.824 10.992 10.824 10.908 10.908 10.824C10.992 10.74 10.908 10.656 10.908 10.572C10.908 10.488 10.572 9.648 10.404 9.312C10.32 9.06 10.152 9.06 10.068 9.06C9.98401 9.06 9.89999 9.06 9.73199 9.06C9.64799 9.06 9.47999 9.06 9.31199 9.228C9.14399 9.396 8.724 9.816 8.724 10.656C8.724 11.496 9.31199 12.252 9.39599 12.42C9.47999 12.504 10.572 14.268 12.252 14.94C13.68 15.528 13.932 15.36 14.268 15.36C14.604 15.36 15.276 14.94 15.36 14.604C15.528 14.184 15.528 13.848 15.444 13.848C15.36 13.428 15.192 13.428 15.024 13.344Z" fill="white"/>
</svg>
