<svg width="9" height="9" viewBox="0 0 9 9" fill="none" xmlns="http://www.w3.org/2000/svg">
<g clip-path="url(#clip0_0_505)">
<path d="M1.57699 1.34388C1.92153 1.23902 2.21916 1.14844 2.62652 0.75197L2.84584 0.53265C2.54471 0.196315 2.11882 0 1.65457 0C0.522082 0 -0.253053 1.1479 0.173561 2.20105L0.309441 2.06516C0.810258 1.57724 1.21761 1.45326 1.57699 1.34388ZM0.682602 2.44567L0.463317 2.66496C0.762382 2.9987 1.18663 3.19761 1.65457 3.19761C2.78707 3.19761 3.56221 2.04968 3.13559 0.996552L2.99969 1.13245C2.4989 1.62039 2.09156 1.74435 1.73216 1.85374C1.38759 1.95859 1.08999 2.04915 0.682602 2.44567ZM4.80076 4.75392L4.42396 4.37704L5.75081 3.05034L5.37649 2.67601L4.61237 2.68126L0.177807 7.11583C0.313225 8.09488 1.08294 8.86458 2.06201 9L6.49658 4.56547L6.50184 3.80135L6.12765 3.42716L4.80076 4.75392ZM6.70142 1.72259L8.19055 0.233461L8.94411 0.98703L7.45499 2.47616L6.70142 1.72259ZM5.93826 2.48548L6.32446 2.09928L7.07803 2.85285L6.69183 3.23905L5.93826 2.48548Z" fill="#606060"/>
</g>
<defs>
<clipPath id="clip0_0_505">
<rect width="9" height="9" fill="white"/>
</clipPath>
</defs>
</svg>
