<svg width="17" height="16" viewBox="0 0 17 16" fill="none" xmlns="http://www.w3.org/2000/svg">
<g clip-path="url(#clip0_1245_1520)">
<path d="M13.5056 3H5.50562C4.13062 3 3.00562 4.125 3.00562 5.5V13.5C3.00562 14.875 4.13062 16 5.50562 16H13.5056C14.8806 16 16.0056 14.875 16.0056 13.5V5.5C16.0056 4.125 14.8806 3 13.5056 3ZM6.50562 14C5.67762 14 5.00562 13.328 5.00562 12.5C5.00562 11.672 5.67762 11 6.50562 11C7.33362 11 8.00562 11.672 8.00562 12.5C8.00562 13.328 7.33362 14 6.50562 14ZM6.50562 8C5.67762 8 5.00562 7.328 5.00562 6.5C5.00562 5.672 5.67762 5 6.50562 5C7.33362 5 8.00562 5.672 8.00562 6.5C8.00562 7.328 7.33362 8 6.50562 8ZM9.50562 11C8.67762 11 8.00562 10.328 8.00562 9.5C8.00562 8.672 8.67762 8 9.50562 8C10.3336 8 11.0056 8.672 11.0056 9.5C11.0056 10.328 10.3336 11 9.50562 11ZM12.5056 14C11.6776 14 11.0056 13.328 11.0056 12.5C11.0056 11.672 11.6776 11 12.5056 11C13.3336 11 14.0056 11.672 14.0056 12.5C14.0056 13.328 13.3336 14 12.5056 14ZM12.5056 8C11.6776 8 11.0056 7.328 11.0056 6.5C11.0056 5.672 11.6776 5 12.5056 5C13.3336 5 14.0056 5.672 14.0056 6.5C14.0056 7.328 13.3336 8 12.5056 8ZM12.9546 2C12.7216 0.862 11.7096 0 10.5056 0H2.50562C1.13062 0 0.00561523 1.125 0.00561523 2.5V10.5C0.00561523 11.704 0.867615 12.716 2.00562 12.949V3C2.00562 2.45 2.45562 2 3.00562 2H12.9546Z" fill="#E84C4D"/>
</g>
<defs>
<clipPath id="clip0_1245_1520">
<rect width="16" height="16" fill="white" transform="translate(0.00561523)"/>
</clipPath>
</defs>
</svg>
