<svg width="243" height="225" viewBox="0 0 243 225" fill="none" xmlns="http://www.w3.org/2000/svg">
<path d="M238.911 153.976C236.187 151.251 232.875 149.887 228.982 149.887H161.221L141.36 169.747C135.713 175.198 129.094 177.925 121.5 177.925C113.908 177.925 107.286 175.202 101.64 169.747L81.9251 149.887H14.0191C10.1256 149.887 6.81567 151.253 4.08889 153.976C1.36262 156.702 0 160.012 0 163.908V210.637C0 214.532 1.36262 217.842 4.08889 220.567C6.81516 223.293 10.125 224.654 14.0191 224.654H228.983C232.875 224.654 236.188 223.293 238.911 220.567C241.638 217.842 243 214.532 243 210.637V163.908C243 160.012 241.638 156.702 238.911 153.976ZM184.151 203.189C182.299 205.039 180.108 205.964 177.576 205.964C175.045 205.964 172.857 205.039 171.005 203.189C169.156 201.339 168.232 199.15 168.232 196.62C168.232 194.089 169.156 191.896 171.005 190.048C172.857 188.197 175.045 187.271 177.576 187.271C180.108 187.271 182.298 188.197 184.151 190.048C185.999 191.895 186.924 194.088 186.924 196.62C186.924 199.149 185.999 201.339 184.151 203.189ZM221.533 203.189C219.685 205.039 217.493 205.964 214.961 205.964C212.43 205.964 210.241 205.039 208.39 203.189C206.542 201.339 205.618 199.15 205.618 196.62C205.618 194.089 206.542 191.896 208.39 190.048C210.24 188.197 212.43 187.271 214.961 187.271C217.493 187.271 219.684 188.197 221.533 190.048C223.383 191.895 224.309 194.088 224.309 196.62C224.309 199.149 223.385 201.339 221.533 203.189Z" fill="white"/>
<path d="M114.929 156.458C116.682 158.306 118.872 159.231 121.5 159.231C124.13 159.231 126.317 158.306 128.071 156.458L193.495 91.0338C196.512 88.2109 197.195 84.8028 195.539 80.8111C193.887 77.0153 191.014 75.1171 186.924 75.1151H149.538V9.69182C149.538 7.16095 148.612 4.97021 146.765 3.12065C144.914 1.27057 142.724 0.345276 140.194 0.345276H102.806C100.276 0.345276 98.0853 1.27057 96.2347 3.12065C94.3856 4.97021 93.4604 7.16043 93.4604 9.69182V75.1156H56.0757C51.9848 75.1156 49.1143 77.0158 47.4591 80.8116C45.8049 84.8018 46.4857 88.2114 49.5045 91.0344L114.929 156.458Z" fill="white"/>
</svg>
