<svg width="121" height="95" viewBox="0 0 121 95" fill="none" xmlns="http://www.w3.org/2000/svg">
<path d="M60.907 18.923C59.0758 18.923 57.2858 18.38 55.7632 17.3626C54.2407 16.3453 53.054 14.8993 52.3532 13.2075C51.6524 11.5157 51.4691 9.65414 51.8263 7.85816C52.1836 6.06218 53.0654 4.41246 54.3602 3.11763C55.655 1.8228 57.3048 0.941011 59.1007 0.583767C60.8967 0.226524 62.7583 0.409867 64.4501 1.11062C66.1419 1.81138 67.5879 2.99808 68.6052 4.52064C69.6225 6.0432 70.1655 7.83324 70.1655 9.66441C70.1614 12.1187 69.1846 14.4712 67.4492 16.2066C65.7138 17.942 63.3612 18.9188 60.907 18.923ZM60.907 3.54435C59.6966 3.54435 58.5133 3.90329 57.5069 4.57577C56.5004 5.24825 55.716 6.20408 55.2528 7.32237C54.7896 8.44067 54.6684 9.67121 54.9045 10.8584C55.1407 12.0456 55.7236 13.136 56.5795 13.992C57.4354 14.8479 58.5259 15.4307 59.713 15.6669C60.9002 15.903 62.1307 15.7818 63.249 15.3186C64.3673 14.8554 65.3231 14.071 65.9956 13.0645C66.6681 12.0581 67.0271 10.8748 67.0271 9.66441C67.0229 8.04255 66.3768 6.48829 65.2299 5.34145C64.0831 4.19462 62.5289 3.54849 60.907 3.54435Z" fill="#01AF70"/>
<path d="M62.5369 95C59.9416 95.0031 57.4037 94.2363 55.2442 92.7967C53.0847 91.357 51.4008 89.3093 50.4055 86.9124C49.4101 84.5155 49.1481 81.8772 49.6525 79.3313C50.1569 76.7855 51.4052 74.4465 53.2393 72.6102C55.0733 70.7739 57.4109 69.5229 59.9561 69.0154C62.5013 68.508 65.1399 68.7668 67.538 69.7593C69.9361 70.7518 71.9859 72.4333 73.4281 74.591C74.8704 76.7487 75.6402 79.2857 75.6402 81.8811C75.636 85.3564 74.2547 88.6885 71.7987 91.1474C69.3427 93.6064 66.0123 94.9917 62.5369 95ZM62.5369 71.9007C60.5623 71.8976 58.6312 72.4803 56.9879 73.575C55.3445 74.6698 54.0629 76.2275 53.3051 78.0509C52.5473 79.8743 52.3474 81.8815 52.7307 83.8185C53.114 85.7556 54.0633 87.5354 55.4585 88.9327C56.8537 90.3301 58.632 91.2822 60.5684 91.6686C62.5048 92.0549 64.5124 91.8582 66.337 91.1033C68.1616 90.3483 69.7212 89.0691 70.8186 87.4275C71.9159 85.7859 72.5017 83.8557 72.5017 81.8811C72.4975 79.2381 71.4468 76.7043 69.5794 74.834C67.712 72.9636 65.1799 71.909 62.5369 71.9007Z" fill="#01AF70"/>
<path d="M97.5294 79.3546L88.8985 65.0588V39.6213C88.9006 35.9374 88.1768 32.2892 86.7684 28.8851C85.3601 25.481 83.2948 22.3878 80.6906 19.7822C78.0864 17.1765 74.9944 15.1095 71.5911 13.6993C68.1878 12.289 64.54 11.5632 60.8561 11.5632C53.4146 11.5632 46.2779 14.5193 41.016 19.7812C35.7541 25.0431 32.798 32.1798 32.798 39.6213V65.0588L24.1828 79.3546C23.9562 79.7242 23.8326 80.1477 23.8246 80.5811C23.8167 81.0146 23.9247 81.4423 24.1376 81.8199C24.3504 82.1976 24.6603 82.5115 25.0352 82.7292C25.4101 82.9469 25.8364 83.0604 26.2699 83.058H95.4266C95.8595 83.0582 96.2847 82.9437 96.6589 82.7259C97.0331 82.5082 97.3428 82.1952 97.5565 81.8188C97.7703 81.4423 97.8804 81.0159 97.8756 80.583C97.8709 80.1501 97.7514 79.7263 97.5294 79.3546Z" fill="white"/>
<path d="M95.4779 84.6273H26.3212C25.6101 84.6349 24.9104 84.4491 24.2968 84.0898C23.6832 83.7304 23.1787 83.2111 22.8375 82.5873C22.4759 81.9739 22.2852 81.2749 22.2852 80.5629C22.2852 79.8509 22.4759 79.152 22.8375 78.5386L31.2329 64.6194V39.6213C31.1421 35.6743 31.841 31.7488 33.2887 28.0757C34.7364 24.4026 36.9036 21.0559 39.6631 18.2322C42.4225 15.4086 45.7184 13.1649 49.3573 11.6331C52.9961 10.1012 56.9044 9.31214 60.8525 9.31214C64.8006 9.31214 68.7088 10.1012 72.3477 11.6331C75.9865 13.1649 79.2824 15.4086 82.0419 18.2322C84.8013 21.0559 86.9685 24.4026 88.4162 28.0757C89.8639 31.7488 90.5628 35.6743 90.472 39.6213V64.6508L98.8675 78.57C99.234 79.1791 99.4324 79.8746 99.4423 80.5854C99.4522 81.2962 99.2733 81.997 98.9238 82.6161C98.5744 83.2352 98.067 83.7504 97.4533 84.1093C96.8396 84.4681 96.1417 84.6577 95.4308 84.6587L95.4779 84.6273ZM60.9545 13.1324C53.9317 13.1407 47.199 15.9342 42.2332 20.9C37.2674 25.8658 34.4739 32.5986 34.4656 39.6213V65.0588C34.4655 65.3404 34.3896 65.6169 34.2459 65.8591L25.6307 80.1706C25.5469 80.3018 25.5023 80.4543 25.5023 80.61C25.5023 80.7657 25.5469 80.9182 25.6307 81.0494C25.706 81.1829 25.8154 81.294 25.9478 81.3712C26.0802 81.4484 26.2307 81.489 26.384 81.4888H95.5406C95.6962 81.4902 95.8494 81.4502 95.9845 81.373C96.1196 81.2958 96.2318 81.1842 96.3096 81.0494C96.3883 80.9164 96.4298 80.7646 96.4298 80.61C96.4298 80.4554 96.3883 80.3037 96.3096 80.1706L87.6944 65.8591C87.5389 65.6213 87.457 65.3429 87.459 65.0588V39.6213C87.457 36.138 86.7683 32.6893 85.4325 29.4724C84.0966 26.2554 82.1398 23.3334 79.6738 20.8732C77.2079 18.4131 74.2812 16.4632 71.0611 15.135C67.841 13.8067 64.3907 13.1263 60.9074 13.1324H60.9545Z" fill="#01AF70"/>
<path d="M108.408 21.4181C108.109 21.4202 107.816 21.3372 107.563 21.1788C107.311 21.0203 107.108 20.7931 106.98 20.5236C106.802 20.1489 106.78 19.719 106.918 19.3279C107.056 18.9368 107.343 18.6163 107.717 18.4365L118.215 13.3365C118.59 13.1533 119.022 13.1265 119.416 13.2619C119.811 13.3973 120.135 13.6837 120.318 14.0583C120.501 14.4329 120.528 14.8649 120.393 15.2592C120.257 15.6536 119.971 15.978 119.596 16.1611L109.082 21.2611C108.872 21.3631 108.642 21.4167 108.408 21.4181Z" fill="#DFEAEF"/>
<path d="M118.481 38.6013H118.23L108.579 37.0321C108.163 36.9676 107.789 36.7404 107.541 36.4005C107.292 36.0606 107.189 35.6358 107.253 35.2196C107.318 34.8034 107.545 34.4299 107.885 34.1812C108.225 33.9325 108.649 33.8291 109.066 33.8936L118.716 35.4628C118.921 35.4935 119.117 35.5641 119.293 35.6707C119.47 35.7772 119.624 35.9176 119.747 36.0838C119.869 36.25 119.958 36.4387 120.007 36.6391C120.056 36.8395 120.066 37.0477 120.035 37.2518C119.982 37.6261 119.795 37.9688 119.51 38.2168C119.225 38.4647 118.859 38.6013 118.481 38.6013Z" fill="#DFEAEF"/>
<path d="M98.4115 10.2137C98.1038 10.2112 97.8037 10.1185 97.5484 9.94688C97.2044 9.7168 96.9652 9.36014 96.8829 8.95455C96.8006 8.54896 96.8819 8.12729 97.109 7.78133L101.817 0.704025C101.931 0.531524 102.078 0.383256 102.249 0.267739C102.421 0.152222 102.613 0.0717323 102.816 0.030901C103.019 -0.00993021 103.227 -0.0103007 103.43 0.0298115C103.633 0.0699238 103.826 0.149729 103.998 0.264638C104.342 0.494723 104.581 0.851383 104.663 1.25697C104.746 1.66256 104.664 2.08423 104.437 2.43019L99.8081 9.4918C99.6594 9.72432 99.4519 9.91351 99.2067 10.0402C98.9615 10.167 98.6872 10.2268 98.4115 10.2137Z" fill="#DFEAEF"/>
<path d="M12.1147 21.4181C11.8805 21.4201 11.6492 21.3663 11.4399 21.2611L3.09153 17.2125L0.925964 16.1611C0.734645 16.0751 0.562508 15.9516 0.419723 15.798C0.276938 15.6443 0.166394 15.4636 0.0946485 15.2665C0.0229031 15.0694 -0.0085958 14.8599 0.00200604 14.6504C0.0126079 14.441 0.0651001 14.2357 0.156378 14.0469C0.247656 13.858 0.375869 13.6894 0.533437 13.5509C0.691004 13.4125 0.874729 13.307 1.07375 13.2408C1.27277 13.1746 1.48306 13.1489 1.69217 13.1653C1.90128 13.1818 2.10496 13.2399 2.2912 13.3364L4.45677 14.3878L12.7895 18.4365C13.1084 18.591 13.3657 18.8489 13.5195 19.1682C13.6732 19.4876 13.7143 19.8496 13.636 20.1952C13.5578 20.5409 13.3649 20.8499 13.0886 21.072C12.8124 21.294 12.4691 21.416 12.1147 21.4181Z" fill="#DFEAEF"/>
<path d="M2.03119 38.6013C1.82511 38.6167 1.618 38.5915 1.4217 38.5269C1.22539 38.4623 1.04373 38.3597 0.887083 38.2249C0.570721 37.9527 0.375469 37.5659 0.344255 37.1497C0.313041 36.7335 0.448424 36.322 0.720643 36.0056C0.992862 35.6893 1.37962 35.494 1.79581 35.4628L11.4467 33.8935C11.6508 33.86 11.8595 33.867 12.0608 33.9144C12.2621 33.9618 12.4521 34.0485 12.6198 34.1695C12.7875 34.2906 12.9297 34.4436 13.038 34.6197C13.1464 34.7959 13.2189 34.9917 13.2513 35.196C13.2825 35.4001 13.2731 35.6083 13.2237 35.8087C13.1743 36.0091 13.0858 36.1978 12.9634 36.364C12.841 36.5302 12.6869 36.6706 12.5101 36.7771C12.3333 36.8837 12.1373 36.9543 11.9331 36.9849L2.28227 38.5542L2.03119 38.6013Z" fill="#DFEAEF"/>
<path d="M22.0947 10.2136C21.8362 10.2123 21.5821 10.1471 21.3548 10.0239C21.1276 9.90076 20.9344 9.72335 20.7922 9.50748L16.0845 2.43018C15.8637 2.08267 15.7884 1.66234 15.8747 1.25981C15.961 0.857274 16.2021 0.50479 16.5459 0.278333C16.8897 0.0518762 17.3087 -0.0304125 17.7126 0.0492171C18.1165 0.128847 18.473 0.364012 18.7051 0.704012L23.4128 7.78131C23.6385 8.12918 23.7172 8.5522 23.632 8.95796C23.5467 9.36373 23.3043 9.71925 22.9577 9.94687C22.7024 10.1185 22.4023 10.2112 22.0947 10.2136Z" fill="#DFEAEF"/>
<path d="M51.5049 47C50.2191 47.001 48.9619 46.6206 47.8924 45.9069C46.8228 45.1933 45.9889 44.1785 45.4962 42.9908C45.0035 41.8032 44.8741 40.4961 45.1243 39.2349C45.3746 37.9737 45.9932 36.8151 46.9021 35.9055C47.8109 34.996 48.9691 34.3765 50.2301 34.1253C51.4911 33.8741 52.7983 34.0025 53.9863 34.4943C55.1743 34.9861 56.1898 35.8193 56.9042 36.8883C57.6187 37.9573 58 39.2142 58 40.5C57.9974 42.2223 57.3124 43.8733 56.0951 45.0916C54.8777 46.3099 53.2272 46.9961 51.5049 47ZM51.5049 34.9823C50.4122 34.9814 49.3438 35.3046 48.4349 35.911C47.526 36.5175 46.8174 37.3799 46.3988 38.3892C45.9802 39.3985 45.8704 40.5094 46.0833 41.5811C46.2963 42.6528 46.8223 43.6373 47.595 44.4099C48.3676 45.1826 49.3521 45.7086 50.4238 45.9216C51.4955 46.1345 52.6063 46.0247 53.6156 45.6061C54.625 45.1875 55.4874 44.4789 56.0939 43.57C56.7003 42.6611 57.0235 41.5927 57.0226 40.5C57.02 39.0374 56.4378 37.6355 55.4036 36.6013C54.3694 35.5671 52.9675 34.9849 51.5049 34.9823Z" fill="#01AF70"/>
<path d="M70.5049 47C69.2191 47.001 67.9619 46.6206 66.8924 45.9069C65.8228 45.1933 64.9889 44.1785 64.4962 42.9908C64.0035 41.8032 63.8741 40.4961 64.1243 39.2349C64.3746 37.9737 64.9932 36.8151 65.9021 35.9055C66.8109 34.996 67.9691 34.3765 69.2301 34.1253C70.4911 33.8741 71.7983 34.0025 72.9863 34.4943C74.1743 34.9861 75.1898 35.8193 75.9042 36.8883C76.6187 37.9573 77 39.2142 77 40.5C76.9974 42.2223 76.3124 43.8733 75.0951 45.0916C73.8777 46.3099 72.2272 46.9961 70.5049 47ZM70.5049 34.9823C69.4122 34.9814 68.3438 35.3046 67.4349 35.911C66.526 36.5175 65.8174 37.3799 65.3988 38.3892C64.9802 39.3985 64.8704 40.5094 65.0833 41.5811C65.2963 42.6528 65.8223 43.6373 66.595 44.4099C67.3676 45.1826 68.3521 45.7086 69.4238 45.9216C70.4955 46.1345 71.6063 46.0247 72.6156 45.6061C73.625 45.1875 74.4874 44.4789 75.0939 43.57C75.7003 42.6611 76.0235 41.5927 76.0226 40.5C76.02 39.0374 75.4378 37.6355 74.4036 36.6013C73.3694 35.5671 71.9675 34.9849 70.5049 34.9823Z" fill="#01AF70"/>
</svg>
