<svg width="44" height="44" viewBox="0 0 44 44" fill="none" xmlns="http://www.w3.org/2000/svg">
<path d="M9.70494 19.5908H6.47954C5.89325 19.5908 5.41797 20.0661 5.41797 20.6524V30.5964C5.41797 31.1826 5.89325 31.6579 6.47954 31.6579H9.70494C10.2912 31.6579 10.7665 31.1826 10.7665 30.5964V20.6524C10.7665 20.0661 10.2912 19.5908 9.70494 19.5908Z" fill="white"/>
<path d="M0.0557233 16.4705V12.8535C0.0557233 12.3406 0.0557233 12.0762 0.461309 11.8583C6.23391 8.75756 17.8804 2.48461 18.2853 2.19882C18.6902 1.91302 19.2488 2.07974 19.4775 2.19882C24.7816 5.05548 35.6137 10.8939 36.5092 11.3943C37.4047 11.8947 37.6495 12.431 37.6599 12.6366V16.4268C37.6599 17.8751 36.9434 18.2293 36.5851 18.2254H35.6912H1.7061C0.273673 18.2254 0.0090051 17.0554 0.0557233 16.4705Z" fill="white"/>
<path fill-rule="evenodd" clip-rule="evenodd" d="M18.9272 33.0196L1.12798 33.0195C0.541688 33.0195 0.0664065 33.4948 0.0664065 34.0811L0.0664063 38.5999C0.0664062 39.1862 0.541685 39.6614 1.12797 39.6614L21.6553 39.6615C20.1696 37.8001 19.1906 35.5165 18.9272 33.0196Z" fill="white"/>
<path fill-rule="evenodd" clip-rule="evenodd" d="M21.5517 23.7842V20.6504C21.5517 20.0641 21.0764 19.5889 20.4901 19.5889H17.2647C16.6784 19.5889 16.2031 20.0641 16.2031 20.6504V30.5944C16.2031 31.1807 16.6784 31.656 17.2647 31.656H18.857C18.857 28.6897 19.8627 25.9584 21.5517 23.7842Z" fill="white"/>
<path fill-rule="evenodd" clip-rule="evenodd" d="M43.0322 31.6567C43.0322 37.6286 38.191 42.4697 32.2192 42.4697C26.2474 42.4697 21.4062 37.6286 21.4062 31.6567C21.4062 25.6849 26.2474 20.8438 32.2192 20.8438C38.191 20.8438 43.0322 25.6849 43.0322 31.6567ZM30.9349 27.6751C30.9349 26.9283 31.5402 26.3229 32.287 26.3229C33.0339 26.3229 33.6394 26.9283 33.6394 27.6751V30.2567H36.22C36.9668 30.2567 37.5722 30.8621 37.5722 31.6089C37.5722 32.3557 36.9668 32.9611 36.22 32.9611H33.6394V35.5416C33.6394 36.2884 33.0339 36.8939 32.287 36.8939C31.5402 36.8939 30.9349 36.2884 30.9349 35.5416V32.9611H28.3533C27.6065 32.9611 27.0012 32.3557 27.0012 31.6089C27.0012 30.8621 27.6065 30.2567 28.3533 30.2567H30.9349V27.6751Z" fill="#6778E3"/>
<path d="M33.6419 27.6725C33.6419 26.9257 33.0365 26.3203 32.2897 26.3203C31.5429 26.3203 30.9375 26.9257 30.9375 27.6725V35.5391C30.9375 36.2859 31.5429 36.8913 32.2897 36.8913C33.0365 36.8913 33.6419 36.2859 33.6419 35.5391V27.6725Z" fill="white"/>
<path d="M28.3561 30.2536C27.6093 30.2536 27.0039 30.859 27.0039 31.6058C27.0039 32.3526 27.6093 32.958 28.3561 32.958H36.2227C36.9695 32.958 37.5749 32.3526 37.5749 31.6058C37.5749 30.859 36.9695 30.2536 36.2227 30.2536H28.3561Z" fill="white"/>
</svg>
