<svg width="101" height="101" viewBox="0 0 101 101" fill="none" xmlns="http://www.w3.org/2000/svg">
<path d="M50.5511 51.7272H8.08612V57.9412H50.5511M50.5511 64.3112H5.29712V58.0972H10.1571M11.3631 23.2592V51.5692M26.9521 23.2592V51.5692M42.5411 23.2592V51.5692M58.6431 23.2592V37.6702M17.6111 23.2592V51.5692M33.2011 23.2592V51.5692M48.7921 23.2592V51.5692M64.8931 23.2592V37.6702M4.95312 23.2682V17.6852L38.1431 4.5542L71.0231 17.6852V23.2682H4.95312Z" stroke="white" stroke-width="2.745" stroke-linecap="round"/>
<path d="M37.987 17.2069C39.7057 17.2069 41.099 15.8136 41.099 14.0949C41.099 12.3762 39.7057 10.9829 37.987 10.9829C36.2683 10.9829 34.875 12.3762 34.875 14.0949C34.875 15.8136 36.2683 17.2069 37.987 17.2069Z" stroke="white" stroke-width="3.431"/>
<path d="M95.99 97.1671V77.9871C96.25 75.3591 94.802 68.8551 86.936 63.8701M86.487 74.6821L89.792 77.9861M55.293 95.9051V43.0381H86.643V74.8751L77.297 66.0151C76.469 65.6751 74.357 65.4511 72.527 67.2811C70.696 69.1111 71.049 71.2891 71.455 72.1491L83.333 84.8061C79.75 88.3891 78.855 93.6981 78.855 95.9051H55.293Z" stroke="white" stroke-width="2.745" stroke-linecap="square"/>
<path d="M80.8248 69.2609V51.9999C78.3588 51.9999 77.5648 49.7099 77.4778 48.5659H64.7078C64.2848 50.6789 62.5938 51.7359 61.8008 51.9999V85.8199C62.6808 86.0839 64.6188 87.2299 65.3238 89.6959C69.2278 89.9299 77.0368 90.2589 77.0368 89.6959C77.0368 88.9909 78.3588 86.3489 80.8248 85.8199V82.2099" stroke="white" stroke-width="2.745" stroke-linecap="round"/>
<path d="M79.5879 65.8859C77.1269 62.2499 70.1559 57.1589 61.9609 65.8859V72.6039C64.2009 74.7769 69.9029 78.4709 74.7989 75.8639" stroke="white" stroke-width="2.745" stroke-linecap="square"/>
<path d="M69.3454 53.1792H72.6054V56.4392H69.3454V53.1792ZM69.3454 81.3872H72.6054V84.6472H69.3454V81.3872ZM45.9244 87.7072H49.1844V90.9672H45.9244V87.7072ZM39.5434 87.7072H42.8034V90.9672H39.5434V87.7072ZM33.1664 87.7072H36.4264V90.9672H33.1664V87.7072ZM26.9414 87.7072H30.2014V90.9672H26.9414V87.7072ZM26.9414 81.5362H30.2014V84.7962H26.9414V81.5362ZM26.9414 75.3662H30.2014V78.6262H26.9414V75.3662ZM26.9414 69.1972H30.2014V72.4572H26.9414V69.1972Z" fill="white"/>
</svg>
