<svg width="36" height="35" viewBox="0 0 36 35" fill="none" xmlns="http://www.w3.org/2000/svg">
<g clip-path="url(#clip0_277_5030)">
<mask id="mask0_277_5030" style="mask-type:luminance" maskUnits="userSpaceOnUse" x="0" y="0" width="36" height="36">
<path d="M35.8008 0.00500488H0.800781V35.005H35.8008V0.00500488Z" fill="white"/>
</mask>
<g mask="url(#mask0_277_5030)">
<path d="M14.4509 12.3699C13.1641 12.3699 12.1172 13.4168 12.1172 14.7036V22.6381C12.1172 23.9248 13.1641 24.9717 14.4509 24.9717H20.11C21.3968 24.9717 22.4437 23.9249 22.4437 22.6381V22.6203V14.7036C22.4437 13.4168 21.3968 12.3699 20.11 12.3699H14.4509Z" fill="#45BF75"/>
<path d="M20.1111 13.5368C20.7545 13.5368 21.2779 14.0602 21.2779 14.7036L21.278 22.6386C21.2776 23.2817 20.7543 23.8048 20.1111 23.8048H14.452C13.8086 23.8048 13.2852 23.2814 13.2852 22.638V14.7035C13.2852 14.0601 13.8086 13.5367 14.452 13.5367L20.1111 13.5368Z" fill="white"/>
<path d="M19.4373 15.2888H15.2983C14.976 15.2888 14.7148 15.55 14.7148 15.8722C14.7148 16.1945 14.976 16.4557 15.2983 16.4557H19.4373C19.7595 16.4557 20.0207 16.1945 20.0207 15.8722C20.0207 15.55 19.7595 15.2888 19.4373 15.2888Z" fill="#45BF75"/>
<path d="M19.4373 17.6224H15.2983C14.976 17.6224 14.7148 17.8836 14.7148 18.2059C14.7148 18.5281 14.976 18.7893 15.2983 18.7893H19.4373C19.7595 18.7893 20.0207 18.5281 20.0207 18.2059C20.0207 17.8836 19.7595 17.6224 19.4373 17.6224Z" fill="#45BF75"/>
<path d="M17.0777 19.9562H15.2983C14.976 19.9562 14.7148 20.2174 14.7148 20.5396C14.7148 20.8618 14.976 21.123 15.2983 21.123H17.0777C17.3999 21.123 17.6611 20.8618 17.6611 20.5396C17.6611 20.2174 17.3999 19.9562 17.0777 19.9562Z" fill="#45BF75"/>
<path d="M16.779 10.042C15.4922 10.042 14.4453 11.0889 14.4453 12.3757V20.3101C14.4453 21.5969 15.4922 22.6438 16.779 22.6438H22.4381C23.7249 22.6438 24.7718 21.597 24.7718 20.3101V20.2924V12.3757C24.7718 11.0889 23.725 10.042 22.4381 10.042H16.779Z" fill="#45BF75"/>
<path d="M22.4392 11.2089C23.0826 11.2089 23.606 11.7323 23.606 12.3757L23.6061 20.3107C23.6057 20.9538 23.0824 21.4769 22.4392 21.4769H16.7801C16.1367 21.4769 15.6133 20.9534 15.6133 20.31V12.3756C15.6133 11.7322 16.1367 11.2087 16.7801 11.2087L22.4392 11.2089Z" fill="white"/>
<path d="M21.535 13.1888H17.3959C17.0737 13.1888 16.8125 13.45 16.8125 13.7723C16.8125 14.0945 17.0737 14.3557 17.3959 14.3557H21.535C21.8572 14.3557 22.1184 14.0945 22.1184 13.7723C22.1184 13.45 21.8572 13.1888 21.535 13.1888Z" fill="#45BF75"/>
<path d="M21.535 15.5225H17.3959C17.0737 15.5225 16.8125 15.7836 16.8125 16.1059C16.8125 16.4281 17.0737 16.6893 17.3959 16.6893H21.535C21.8572 16.6893 22.1184 16.4281 22.1184 16.1059C22.1184 15.7836 21.8572 15.5225 21.535 15.5225Z" fill="#45BF75"/>
<path d="M18.6722 17.8562L17.3959 17.8562C17.0737 17.8562 16.8125 18.1174 16.8125 18.4396C16.8125 18.7619 17.0737 19.023 17.3959 19.023L18.6722 19.0231C18.9944 19.0231 19.2556 18.7619 19.2556 18.4396C19.2556 18.1174 18.9944 17.8562 18.6722 17.8562Z" fill="#45BF75"/>
</g>
</g>
<defs>
<clipPath id="clip0_277_5030">
<rect width="35" height="35" fill="white" transform="translate(0.800781 0.00500488)"/>
</clipPath>
</defs>
</svg>
