<svg width="61" height="66" viewBox="0 0 61 66" fill="none" xmlns="http://www.w3.org/2000/svg">
<g clip-path="url(#clip0_277_5545)">
<path d="M56.5253 32.4298L42.5798 23.6397C42.4146 23.5361 42.1972 23.5361 42.032 23.6397L28.0864 32.4298C27.937 32.5279 27.8438 32.6934 27.8438 32.8691V33.9034C27.8438 34.1875 28.0762 34.4203 28.3601 34.4203H29.9095V35.9714C29.9095 36.2555 30.1418 36.4882 30.4257 36.4882H54.1847C54.4686 36.4882 54.701 36.2555 54.701 35.9714V34.4203H56.2504C56.5342 34.4203 56.7667 34.1875 56.7667 33.9034V32.8691C56.7667 32.6934 56.6734 32.5279 56.524 32.4298H56.5253ZM42.3062 33.3866C38.8927 33.2816 38.8934 28.3199 42.3062 28.2156C45.7198 28.3207 45.7191 33.2823 42.3062 33.3866Z" fill="white"/>
<path d="M44.8878 45.7964V37.5232H39.7227V45.7964H44.8878Z" fill="white"/>
<path d="M37.6574 45.7964V37.5232H32.4922V45.7964H37.6574Z" fill="#FF9657"/>
<path d="M52.1184 45.7964V37.5232H46.9531V45.7964H52.1184Z" fill="#09AD4F"/>
<path d="M56.2504 48.8989H54.701V47.3476C54.701 47.0635 54.4686 46.8308 54.1847 46.8308C52.8554 46.8308 48.3613 46.8308 46.9538 46.8308C44.4892 46.8308 40.1212 46.8308 37.6566 46.8308C36.2395 46.8308 31.7804 46.8308 30.4257 46.8308C30.1418 46.8308 29.9095 47.0635 29.9095 47.3476V48.8989H28.36C28.0762 48.8989 27.8438 49.1315 27.8438 49.4156V52.0012C27.8438 52.2853 28.0762 52.518 28.36 52.518H56.2511C56.5349 52.518 56.7673 52.2853 56.7673 52.0012V49.4156C56.7673 49.1315 56.5342 48.8989 56.2504 48.8989Z" fill="white"/>
<path d="M17.6277 26.1929H19.9951C21.733 26.1929 21.7337 23.5614 19.9951 23.5614H17.6277C15.8897 23.5614 15.8897 26.1929 17.6277 26.1929Z" fill="white"/>
<path d="M13.4682 49.8721H11.1009C9.36221 49.8721 9.36221 52.5029 11.1009 52.5029H13.4682C15.2062 52.5029 15.2062 49.8721 13.4682 49.8721Z" fill="white"/>
<path d="M23.6816 23.5621C21.9545 23.5621 21.9532 26.1936 23.6816 26.1936H30.8741C32.6024 26.1936 32.6024 28.8244 30.8741 28.8244H7.7046C5.97554 28.8244 5.97623 31.4552 7.7046 31.4552H18.2222C19.9513 31.4552 19.9465 34.0859 18.2222 34.0859H14.6421C12.9171 34.0859 12.9137 36.7167 14.6421 36.7167H25.5573C27.2864 36.7167 27.2857 39.3475 25.5573 39.3475H1.777C0.0479494 39.3475 0.0486348 41.979 1.777 41.979H16.4369C18.166 41.979 18.1626 44.6098 16.4369 44.6098H13.0934C11.3657 44.6098 11.365 47.2406 13.0934 47.2406H22.8629C24.592 47.2406 24.59 49.8713 22.8629 49.8713H17.4036C15.6759 49.8713 15.6752 52.5021 17.4036 52.5021H27.6203C27.3947 52.4465 27.2946 52.2427 27.2946 52.0004V49.2776C27.2946 48.8885 27.6299 48.5549 27.948 48.5549H29.2232V47.2756C29.2232 46.6771 29.7079 46.1918 30.3057 46.1918H31.6063V37.0949H29.7737C29.4316 37.0949 29.1546 36.8176 29.1546 36.4751V34.985C29.1546 34.9 29.0861 34.8313 29.001 34.8313H27.9644C27.5956 34.8313 27.2946 34.5293 27.2946 34.1608V32.6624C27.2946 32.4867 27.3878 32.3213 27.5373 32.2232L41.1401 23.639C41.2217 23.5882 41.3156 23.5621 41.4102 23.5614L23.6816 23.5621Z" fill="white"/>
<path d="M11.0226 36.7167C12.7606 36.7167 12.7606 34.0859 11.0226 34.0859H8.65532C6.91663 34.0859 6.91732 36.7167 8.65532 36.7167H11.0226Z" fill="white"/>
<path d="M51.7252 13.6965C47.437 13.6965 43.9609 17.1764 43.9609 21.4695C43.9609 25.7625 47.437 29.2424 51.7252 29.2424C56.0135 29.2424 59.4895 25.7625 59.4895 21.4695C59.4895 17.1764 56.0135 13.6965 51.7252 13.6965ZM51.6981 27.9379C48.1444 27.9379 45.2641 25.0543 45.2641 21.4966C45.2641 17.939 48.1444 15.0554 51.6981 15.0554C55.2517 15.0554 58.1321 17.939 58.1321 21.4966C58.1321 25.0543 55.2517 27.9379 51.6981 27.9379Z" fill="#5BA2CA"/>
<path d="M51.671 27.0142C54.7296 27.0142 57.2091 24.5319 57.2091 21.4699C57.2091 18.4078 54.7296 15.9255 51.671 15.9255C48.6123 15.9255 46.1328 18.4078 46.1328 21.4699C46.1328 24.5319 48.6123 27.0142 51.671 27.0142Z" fill="#5BA2CA"/>
<path d="M48.7883 21.9225L47.0664 21.7822L48.3809 20.4679C48.5603 20.2885 48.8086 20.1975 49.0614 20.2179L49.6922 20.2693C49.3177 20.8897 48.9585 21.5842 48.7883 21.9225ZM52.2296 23.3862L52.1781 22.7561C51.5576 23.1305 50.863 23.4891 50.5247 23.6593L50.6651 25.3809L51.9796 24.0665C52.1589 23.8872 52.25 23.6389 52.2296 23.3862ZM52.6487 19.7988C52.3416 19.4917 51.8433 19.4917 51.5361 19.7988C51.229 20.1059 51.229 20.6041 51.5361 20.9112C51.8433 21.2184 52.3416 21.2184 52.6487 20.9112C52.9559 20.6041 52.9559 20.1059 52.6487 19.7988ZM53.8637 18.5839C54.1556 18.8758 54.4034 19.1936 54.6076 19.5296C54.3061 20.465 53.7128 21.3111 52.9175 21.9683C52.16 22.6005 50.2176 23.5501 50.2176 23.5501L48.8963 22.229C48.8963 22.229 49.846 20.2869 50.4784 19.5296C51.1351 18.7344 51.9818 18.1417 52.9175 17.8397C53.2535 18.0439 53.5724 18.2921 53.8637 18.5839ZM52.8343 19.6133C52.4248 19.2038 51.7613 19.2038 51.3518 19.6133C50.9422 20.0227 50.9422 20.6862 51.3518 21.0956C51.7613 21.5051 52.4248 21.5051 52.8343 21.0956C53.2438 20.6862 53.2438 20.0227 52.8343 19.6133ZM54.0295 18.4183C54.2801 18.6688 54.5024 18.9403 54.6941 19.2276C54.8219 18.7169 54.8633 18.1836 54.8044 17.6428C54.2642 17.584 53.7308 17.6253 53.2195 17.7532C53.5068 17.9449 53.7789 18.1677 54.0295 18.4183ZM48.2475 22.6164L49.8307 24.1994L50.0666 23.7328L48.7142 22.3806L48.2475 22.6164Z" fill="white"/>
</g>
<defs>
<clipPath id="clip0_277_5545">
<rect width="60" height="65" fill="white" transform="translate(0.210938 0.505005)"/>
</clipPath>
</defs>
</svg>
