<svg width="79" height="85" viewBox="0 0 79 85" fill="none" xmlns="http://www.w3.org/2000/svg">
<path d="M10.3319 59.2858H6.94026C6.21627 59.2858 5.62891 59.8687 5.62891 60.5873C5.62891 61.3058 6.21627 61.8888 6.94026 61.8888H10.3319C11.0559 61.8888 11.6433 61.3058 11.6433 60.5873C11.6433 59.8687 11.0559 59.2858 10.3319 59.2858Z" fill="white"/>
<path d="M14.9669 68.925H2.32698C1.60299 68.925 1.01562 69.5081 1.01562 70.2266C1.01562 70.9451 1.60299 71.5281 2.32698 71.5281H14.9669C15.6908 71.5281 16.2782 70.9451 16.2782 70.2266C16.2782 69.5081 15.6908 68.925 14.9669 68.925Z" fill="white"/>
<path d="M12.3622 42.3013H17.0828C17.8068 42.3013 18.3942 41.7183 18.3942 40.9998C18.3942 40.2813 17.8068 39.6982 17.0828 39.6982H12.3622C11.6382 39.6982 11.0508 40.2813 11.0508 40.9998C11.0508 41.7183 11.6382 42.3013 12.3622 42.3013Z" fill="white"/>
<path d="M63.7368 33.4231C63.1249 32.7485 62.1732 31.9388 62.1732 31.9388C60.4009 30.4248 58.5483 29.3891 56.3866 28.4815C54.2526 27.5863 52.0181 27.0289 49.7182 26.8177V26.8116H49.7319C49.7319 26.8116 49.5279 26.8116 49.052 26.7441H46.1288C45.9249 26.8116 45.6529 26.8116 45.6529 26.8116H45.4905V26.817C41.742 27.1618 38.1592 28.4242 35.0186 30.5198H20.5574C19.8334 30.5198 19.2461 31.1028 19.2461 31.8215C19.2461 32.54 19.8334 33.123 20.5574 33.123H31.7997C31.2096 33.6971 30.65 34.3037 30.1245 34.9406C28.9179 36.4027 27.9063 38.0038 27.1095 39.7101L21.7077 39.6994H21.705C20.9823 39.6994 20.395 40.2804 20.3936 40.9983C20.3923 41.7168 20.9783 42.3011 21.7022 42.3024L28.8369 42.3165L29.1742 41.5137C29.9193 39.7399 30.9214 38.0828 32.1539 36.5896C33.3775 35.1066 34.8064 33.8091 36.4019 32.7336C39.2756 30.7958 42.5747 29.6522 46.0242 29.3849H49.1832C51.3179 29.5503 53.3906 30.0509 55.364 30.8795C57.7394 31.8767 59.8734 33.3045 61.7062 35.1235C63.5388 36.9425 64.9774 39.0604 65.9822 41.4178C67.0223 43.8582 67.5499 46.4513 67.5499 49.1252C67.5499 51.799 67.0223 54.3919 65.9822 56.8323C64.9774 59.1898 63.5388 61.3077 61.7062 63.1267C59.8734 64.9458 57.7394 66.3735 55.364 67.3708C52.9052 68.403 50.2927 68.9267 47.5986 68.9267H20.5582C19.8341 68.9267 19.2467 69.5096 19.2467 70.2281C19.2467 70.9467 19.8341 71.5296 20.5582 71.5296H47.5999C50.6469 71.5296 53.6034 70.9373 56.3872 69.7687C59.0752 68.6399 61.4892 67.0246 63.562 64.9674C65.6348 62.9102 67.2622 60.5143 68.3997 57.8464C69.577 55.0835 70.174 52.1492 70.174 49.1252C70.174 46.101 69.577 43.1667 68.3997 40.4038C67.4519 38.1805 66.4275 36.4444 64.8252 34.6383" fill="white"/>
<path d="M30.8463 59.8805C29.2868 57.4921 28.2834 54.8558 27.8653 52.045L27.7 50.9338H8.65903C7.93502 50.9338 7.34766 51.5167 7.34766 52.2354C7.34766 52.9539 7.93502 53.5369 8.65903 53.5369H25.4642C25.8667 55.5461 26.5402 57.4697 27.4751 59.2868H15.2668C14.5429 59.2868 13.9556 59.8697 13.9556 60.5883C13.9556 61.3068 14.5429 61.8898 15.2668 61.8898H32.159L30.8463 59.8805Z" fill="white"/>
<path d="M47.6908 66.0793C56.8893 66.0793 64.3463 58.6784 64.3463 49.5488C64.3463 40.4192 56.8893 33.0183 47.6908 33.0183C38.4921 33.0183 31.0352 40.4192 31.0352 49.5488C31.0352 58.6784 38.4921 66.0793 47.6908 66.0793Z" fill="white"/>
<path fill-rule="evenodd" clip-rule="evenodd" d="M56.1354 48.8462L50.2333 37.1764L43.6758 60.1268L56.1354 48.8462Z" fill="#097939"/>
<path fill-rule="evenodd" clip-rule="evenodd" d="M51.9395 48.8462L46.038 37.1764L39.4805 60.1268L51.9395 48.8462Z" fill="#ED752E"/>
<path d="M65.0381 34.7726C70.3725 34.7726 74.6971 30.448 74.6971 25.1134C74.6971 19.7789 70.3725 15.4545 65.0381 15.4545C59.7035 15.4545 55.3789 19.7789 55.3789 25.1134C55.3789 30.448 59.7035 34.7726 65.0381 34.7726Z" fill="white"/>
<path d="M65.1387 26.5014C64.2704 26.5014 63.5664 25.7975 63.5664 24.9292C63.5664 24.0609 64.2704 23.3569 65.1387 23.3569C66.0071 23.3569 66.7109 24.0609 66.7109 24.9292C66.7109 25.7975 66.0071 26.5014 65.1387 26.5014Z" fill="#ED752E"/>
<path d="M59.2657 24.7959C59.7279 23.6001 60.5305 22.566 61.5742 21.8213C62.6177 21.0767 63.8567 20.6541 65.1379 20.606C66.4191 20.6541 67.6581 21.0767 68.7017 21.8213C69.7453 22.566 70.5479 23.6001 71.0102 24.7959C71.0414 24.8824 71.0414 24.9769 71.0102 25.0632C70.5479 26.2591 69.7453 27.2933 68.7017 28.0379C67.6581 28.7826 66.4191 29.2051 65.1379 29.2533C63.8567 29.2051 62.6177 28.7826 61.5742 28.0379C60.5305 27.2933 59.7279 26.2591 59.2657 25.0632C59.2344 24.9769 59.2344 24.8824 59.2657 24.7959ZM65.1379 27.4845C65.6432 27.4845 66.1371 27.3346 66.5572 27.0539C66.9775 26.7732 67.305 26.3741 67.4983 25.9073C67.6916 25.4405 67.7422 24.9268 67.6437 24.4312C67.545 23.9355 67.3018 23.4804 66.9445 23.123C66.5871 22.7657 66.132 22.5225 65.6364 22.4238C65.1408 22.3253 64.627 22.3759 64.1602 22.5692C63.6934 22.7625 63.2944 23.09 63.0136 23.5103C62.7329 23.9304 62.583 24.4243 62.583 24.9296C62.584 25.6069 62.8536 26.2561 63.3325 26.735C63.8114 27.2139 64.4606 27.4835 65.1379 27.4845Z" fill="#ED752E"/>
<path fill-rule="evenodd" clip-rule="evenodd" d="M74.6956 24.7103C74.6956 29.8223 70.5514 33.9663 65.4396 33.9663C60.3277 33.9663 56.1836 29.8223 56.1836 24.7103C56.1836 19.5985 60.3277 15.4545 65.4396 15.4545C70.5514 15.4545 74.6956 19.5985 74.6956 24.7103ZM64.3401 21.3021C64.3401 20.6628 64.8584 20.1447 65.4977 20.1447C66.137 20.1447 66.6552 20.6628 66.6552 21.3021V23.512H68.8642C69.5035 23.512 70.0217 24.0302 70.0217 24.6695C70.0217 25.3087 69.5035 25.8269 68.8642 25.8269H66.6552V28.0359C66.6552 28.6752 66.137 29.1934 65.4977 29.1934C64.8584 29.1934 64.3401 28.6752 64.3401 28.0359V25.8269H62.1304C61.4911 25.8269 60.9728 25.3087 60.9728 24.6695C60.9728 24.0302 61.4911 23.512 62.1304 23.512H64.3401V21.3021Z" fill="white"/>
<path d="M66.6588 21.2999C66.6588 20.6606 66.1406 20.1423 65.5013 20.1423C64.862 20.1423 64.3438 20.6606 64.3438 21.2999V28.0337C64.3438 28.673 64.862 29.1912 65.5013 29.1912C66.1406 29.1912 66.6588 28.673 66.6588 28.0337V21.2999Z" fill="#ED752E"/>
<path d="M62.1301 23.5092C61.4908 23.5092 60.9727 24.0274 60.9727 24.6667C60.9727 25.306 61.4908 25.8242 62.1301 25.8242H68.8639C69.5032 25.8242 70.0214 25.306 70.0214 24.6667C70.0214 24.0274 69.5032 23.5092 68.8639 23.5092H62.1301Z" fill="#ED752E"/>
</svg>
