<svg width="61" height="66" viewBox="0 0 61 66" fill="none" xmlns="http://www.w3.org/2000/svg">
<g clip-path="url(#clip0_277_5571)">
<path d="M11.4499 53.0234H1.63542C1.07326 53.0234 0.617188 53.4761 0.617188 54.034C0.617188 54.5919 1.07326 55.0446 1.63542 55.0446H11.4499C12.012 55.0446 12.4681 54.5919 12.4681 54.034C12.4681 53.4761 12.012 53.0234 11.4499 53.0234Z" fill="white"/>
<path d="M9.42841 32.3508H13.0938C13.656 32.3508 14.1121 31.8981 14.1121 31.3402C14.1121 30.7823 13.656 30.3296 13.0938 30.3296H9.42841C8.86625 30.3296 8.41016 30.7823 8.41016 31.3402C8.41016 31.8981 8.86625 32.3508 9.42841 32.3508Z" fill="white"/>
<path d="M49.3191 25.4572C48.844 24.9334 48.105 24.3047 48.105 24.3047C46.7289 23.1291 45.2904 22.3249 43.6119 21.6202C41.9549 20.9251 40.2199 20.4923 38.4341 20.3283V20.3236H38.4447C38.4447 20.3236 38.2863 20.3236 37.9168 20.2712H35.647C35.4887 20.3236 35.2775 20.3236 35.2775 20.3236H35.1514V20.3278C32.2408 20.5955 29.4589 21.5757 27.0203 23.2029H15.7916C15.2294 23.2029 14.7734 23.6556 14.7734 24.2136C14.7734 24.7715 15.2294 25.2242 15.7916 25.2242H24.5209C24.0627 25.67 23.6282 26.141 23.2202 26.6355C22.2833 27.7708 21.4978 29.014 20.8791 30.3389L16.6848 30.3306H16.6827C16.1215 30.3306 15.6655 30.7817 15.6644 31.3391C15.6634 31.897 16.1184 32.3507 16.6805 32.3517L22.2204 32.3627L22.4823 31.7393C23.0608 30.362 23.8389 29.0753 24.7959 27.9159C25.746 26.7644 26.8555 25.7569 28.0944 24.9218C30.3257 23.4172 32.8874 22.5292 35.5658 22.3217H38.0187C39.6762 22.4501 41.2856 22.8388 42.8179 23.4822C44.6623 24.2565 46.3193 25.3651 47.7424 26.7775C49.1654 28.1899 50.2824 29.8344 51.0626 31.6649C51.8702 33.5598 52.2799 35.5732 52.2799 37.6494C52.2799 39.7256 51.8702 41.7389 51.0626 43.6338C50.2824 45.4643 49.1654 47.1088 47.7424 48.5212C46.3193 49.9337 44.6623 51.0422 42.8179 51.8166C40.9087 52.6181 38.8802 53.0247 36.7883 53.0247H15.7922C15.23 53.0247 14.7739 53.4773 14.7739 54.0352C14.7739 54.5932 15.23 55.0458 15.7922 55.0458H36.7893C39.1552 55.0458 41.4508 54.5859 43.6124 53.6785C45.6995 52.802 47.5739 51.5478 49.1834 49.9504C50.7929 48.3531 52.0565 46.4927 52.9397 44.4212C53.8539 42.2759 54.3174 39.9975 54.3174 37.6494C54.3174 35.3012 53.8539 33.0228 52.9397 30.8775C52.2038 29.1512 51.4084 27.8032 50.1642 26.4008" fill="white"/>
<path d="M23.7811 46.0005C22.5702 44.146 21.7911 42.099 21.4665 39.9165L21.3381 39.0537H6.5534C5.99123 39.0537 5.53516 39.5063 5.53516 40.0643C5.53516 40.6222 5.99123 41.0749 6.5534 41.0749H19.6021C19.9146 42.635 20.4376 44.1286 21.1635 45.5395H11.6841C11.122 45.5395 10.666 45.9921 10.666 46.5501C10.666 47.108 11.122 47.5607 11.6841 47.5607H24.8004L23.7811 46.0005Z" fill="white"/>
<path d="M7.85093 45.5387H5.21745C4.65529 45.5387 4.19922 45.9913 4.19922 46.5493C4.19922 47.1072 4.65529 47.5599 5.21745 47.5599H7.85093C8.4131 47.5599 8.8692 47.1072 8.8692 46.5493C8.8692 45.9913 8.4131 45.5387 7.85093 45.5387Z" fill="white"/>
<path d="M36.8584 50.8137C44.0008 50.8137 49.7909 45.0671 49.7909 37.9782C49.7909 30.8894 44.0008 25.1428 36.8584 25.1428C29.7159 25.1428 23.9258 30.8894 23.9258 37.9782C23.9258 45.0671 29.7159 50.8137 36.8584 50.8137Z" fill="white"/>
<path fill-rule="evenodd" clip-rule="evenodd" d="M43.4167 37.4328L38.8339 28.3715L33.7422 46.1918L43.4167 37.4328Z" fill="#097939"/>
<path fill-rule="evenodd" clip-rule="evenodd" d="M40.1584 37.4328L35.576 28.3715L30.4844 46.1918L40.1584 37.4328Z" fill="#ED752E"/>
<path d="M51.5577 27.4916C56.2129 27.4916 59.9866 23.7344 59.9866 19.0996C59.9866 14.4649 56.2129 10.7076 51.5577 10.7076C46.9026 10.7076 43.1289 14.4649 43.1289 19.0996C43.1289 23.7344 46.9026 27.4916 51.5577 27.4916Z" fill="white"/>
<path d="M58.0788 19.1012C58.0788 22.6825 55.1621 25.59 51.5589 25.59C47.9557 25.59 45.0391 22.6825 45.0391 19.1012C45.0391 15.5198 47.9557 12.6123 51.5589 12.6123C55.1621 12.6123 58.0788 15.5198 58.0788 19.1012Z" fill="white" stroke="#909090" stroke-width="1.1407"/>
<path d="M51.5573 25.0475C54.8573 25.0475 57.5325 22.3839 57.5325 19.0983C57.5325 15.8127 54.8573 13.1492 51.5573 13.1492C48.2572 13.1492 45.582 15.8127 45.582 19.0983C45.582 22.3839 48.2572 25.0475 51.5573 25.0475Z" fill="white"/>
<path fill-rule="evenodd" clip-rule="evenodd" d="M51.7606 18.2807L52.717 18.3932C52.7528 18.3984 52.7839 18.4214 52.7999 18.4545C52.8163 18.4888 52.8137 18.5292 52.7938 18.5613L52.7926 18.5639L51.9176 19.925L52.8076 20.0298C52.8383 20.0349 52.8651 20.0545 52.8793 20.0818C52.8957 20.1127 52.8948 20.1501 52.8771 20.18L50.1191 23.6442C50.0953 23.6698 50.0565 23.6755 50.0263 23.6581C49.9956 23.6403 49.981 23.6033 49.9913 23.569L50.795 20.7392L49.763 20.6183C49.7418 20.6128 49.7246 20.5967 49.7172 20.5758C49.7107 20.5571 49.7125 20.5363 49.7224 20.5189L50.6379 19.0943L49.6814 18.9814C49.6607 18.9732 49.6451 18.9558 49.6391 18.9341C49.6335 18.9123 49.6378 18.8898 49.6512 18.8719L52.2478 15.612C52.2876 15.5694 52.3501 15.5555 52.4041 15.5798C52.465 15.6067 52.4977 15.6732 52.4822 15.7379L51.7606 18.2798V18.2807Z" fill="#F4A322"/>
</g>
<defs>
<clipPath id="clip0_277_5571">
<rect width="60" height="65" fill="white" transform="translate(0.210938 0.505005)"/>
</clipPath>
</defs>
</svg>
