<svg width="102" height="101" viewBox="0 0 102 101" fill="none" xmlns="http://www.w3.org/2000/svg">
<path d="M58.934 16.288L58.29 18.633L46.403 18.593L47.056 16.247L58.934 16.288ZM52.912 30.134L46.667 22.57L46.665 20.582L49.765 20.592C50.505 20.595 51.124 20.475 51.62 20.232C52.123 19.982 52.503 19.634 52.761 19.187C53.026 18.734 53.159 18.203 53.161 17.594C53.164 16.68 52.898 15.944 52.362 15.388C51.827 14.83 50.968 14.55 49.785 14.546L46.417 14.534L47.125 11.769L49.795 11.778C51.3 11.783 52.544 12.02 53.528 12.489C54.518 12.952 55.256 13.606 55.743 14.449C56.235 15.293 56.48 16.279 56.476 17.409C56.473 18.406 56.288 19.295 55.92 20.076C55.554 20.856 54.978 21.496 54.194 21.996C53.41 22.495 52.384 22.826 51.118 22.989L51.011 23.024L56.648 29.986V30.146L52.912 30.134ZM58.968 11.809L58.305 14.189L48.667 14.121L49.329 11.776L58.968 11.809ZM89.567 43.053L87.342 44.035L79.863 34.795L82.093 33.82L89.566 43.053H89.567ZM75.029 47.133L76.946 37.513L78.486 36.255L80.436 38.665C80.902 39.24 81.386 39.643 81.889 39.875C82.399 40.107 82.909 40.182 83.419 40.099C83.937 40.019 84.433 39.786 84.906 39.403C85.616 38.828 86.018 38.157 86.112 37.39C86.206 36.623 85.88 35.78 85.136 34.86L83.017 32.242L85.608 31.044L87.288 33.119C88.235 34.289 88.837 35.403 89.095 36.462C89.361 37.522 89.321 38.507 88.975 39.417C88.632 40.332 88.022 41.145 87.145 41.855C86.37 42.482 85.563 42.901 84.726 43.11C83.889 43.319 83.029 43.277 82.147 42.984C81.265 42.692 80.361 42.106 79.434 41.227L79.339 41.167L77.504 49.935L77.379 50.036L75.029 47.133ZM93.059 40.249L90.795 41.239L84.759 33.725L86.995 32.757L93.059 40.249ZM22.2 33.092L23.724 34.986L16.735 44.601L15.217 42.7L22.201 33.092H22.2ZM29.903 46.078L20.116 46.715L18.502 45.553L20.324 43.046C20.76 42.447 21.024 41.876 21.117 41.33C21.2134 40.8118 21.1513 40.2765 20.939 39.794C20.726 39.314 20.373 38.896 19.881 38.538C19.141 38 18.389 37.786 17.624 37.894C16.859 38.002 16.129 38.534 15.434 39.491L13.453 42.215L11.625 40.023L13.195 37.863C14.079 36.646 15 35.776 15.955 35.253C16.911 34.721 17.873 34.505 18.842 34.604C19.814 34.698 20.757 35.077 21.67 35.741C22.476 36.327 23.09 36.998 23.508 37.752C23.926 38.507 24.108 39.348 24.054 40.276C24 41.204 23.668 42.229 23.059 43.351L23.025 43.459L31.969 42.961L32.099 43.056L29.903 46.078ZM18.588 30.444L20.131 32.374L14.434 40.149L12.92 38.24L18.588 30.444Z" fill="white"/>
<path d="M12.3103 72.2559V96.3049M18.8353 72.2559V96.3049M27.0212 68.9949V96.3059M33.0993 68.9949V96.3059M57.2752 72.2559V96.3049M65.2703 72.2559V96.3049M87.7192 72.2559V96.3049M49.4072 78.5899H94.1792M2.78125 96.3059H92.7092M42.8853 78.5899H45.9552M95.7792 96.3059H98.8492M95.7792 59.4639H98.8492M89.4572 17.9359H92.5272M73.4092 6.77588H76.4792M17.4272 16.4299H20.4972M5.98925 8.27988H9.05925M87.7292 62.3349H14.2193L4.45325 72.2149H23.7603L32.6152 62.9379H33.9463L43.1883 72.2139H96.6032L87.7292 62.3349Z" stroke="white" stroke-width="2.748" stroke-linejoin="round"/>
<path d="M38.1679 4.5C35.5379 6.696 30.5539 13.096 31.6569 21.125M50.8849 38.742V58.048M62.0849 46.76C60.5099 46.878 57.3619 48 57.3619 51.541V57.917M39.7719 43.75C41.3459 43.868 44.4939 44.99 44.4939 48.532V57.902" stroke="white" stroke-width="2.748"/>
<path d="M4.45312 59.4639H7.52312" stroke="white" stroke-width="2.748" stroke-linejoin="round"/>
<path d="M52.5599 33.8419C60.5061 33.8419 66.9479 27.4002 66.9479 19.4539C66.9479 11.5076 60.5061 5.06592 52.5599 5.06592C44.6136 5.06592 38.1719 11.5076 38.1719 19.4539C38.1719 27.4002 44.6136 33.8419 52.5599 33.8419Z" stroke="white" stroke-width="2.748"/>
<path d="M83.0872 54.5011C91.0335 54.5011 97.4752 48.0594 97.4752 40.1131C97.4752 32.1668 91.0335 25.7251 83.0872 25.7251C75.1409 25.7251 68.6992 32.1668 68.6992 40.1131C68.6992 48.0594 75.1409 54.5011 83.0872 54.5011Z" stroke="white" stroke-width="2.748"/>
<path d="M21.0403 54.5011C28.9866 54.5011 35.4283 48.0594 35.4283 40.1131C35.4283 32.1668 28.9866 25.7251 21.0403 25.7251C13.0941 25.7251 6.65234 32.1668 6.65234 40.1131C6.65234 48.0594 13.0941 54.5011 21.0403 54.5011Z" stroke="white" stroke-width="2.748"/>
</svg>
