<svg width="96" height="101" viewBox="0 0 96 101" fill="none" xmlns="http://www.w3.org/2000/svg">
<path d="M24.9264 55.4796L23.8242 54.0303C23.8242 55.4749 24.5999 57.2854 24.9872 58.0096L24.9264 55.4796ZM25.8957 59.5094V56.5509C28.0421 58.4521 29.8975 59.5871 30.558 59.9174V63.4784C29.0395 62.9722 26.8173 60.621 25.8957 59.5094ZM31.533 64.0463V60.4301C32.3142 60.9391 34.9836 61.8803 36.2206 62.2883V66.0533C34.9341 65.8138 32.5594 64.6152 31.533 64.0463ZM37.1562 66.3274V62.5624C37.4463 62.6822 40.3683 63.2772 41.7942 63.5598V67.4119C39.9089 67.2322 37.9169 66.6147 37.1562 66.3274ZM42.7916 67.5747V63.6974C43.0611 63.8658 46.0037 63.9668 47.4417 63.9968V67.8235C46.7737 67.9536 44.0641 67.7113 42.7916 67.5747ZM48.4522 67.8235V63.9968C48.731 63.9968 51.6521 63.7965 53.0771 63.6974V67.4745C52.3389 67.7141 49.6873 67.8067 48.4522 67.8235ZM54.0492 67.3501V63.5336C55.5556 63.2445 57.7853 62.6822 58.7125 62.437V66.2021C57.8648 66.6605 55.2506 67.1583 54.0502 67.3492L54.0492 67.3501ZM59.7221 65.8288V62.1517C61.2584 61.6726 63.4132 60.6799 64.2974 60.243V63.8835C63.0015 64.7621 60.7073 65.5452 59.7221 65.8288ZM65.2704 63.2857V59.7199C66.948 58.8769 69.086 57.0159 69.9458 56.1916V58.934C68.9288 60.7192 66.4054 62.5802 65.2704 63.2857ZM70.9311 57.189V55.0071C71.1902 54.7882 71.5374 54.2679 71.6796 54.034C71.8087 55.1119 71.2342 56.5865 70.9311 57.189ZM62.2904 24.637L66.3951 7.31641L48.9088 12.2416L62.2904 24.637Z" fill="white"/>
<path d="M85.7993 44.0787C84.3884 36.8377 78.0129 21.0572 63.793 15.8662" stroke="white" stroke-width="2.51969"/>
<path d="M73.9102 65.1926L91.2327 69.2972L86.3065 51.8101L73.9102 65.1926Z" fill="white"/>
<path d="M54.4727 88.7012C61.7145 87.2902 77.4942 80.9147 82.6851 66.6948" stroke="white" stroke-width="2.51969"/>
<path d="M21.8822 36.0817L4.5625 31.9771L9.48773 49.4633L21.8822 36.0817Z" fill="white"/>
<path d="M41.3218 12.5728C34.08 13.9837 18.3003 20.3592 13.1094 34.5791" stroke="white" stroke-width="2.51969"/>
<path d="M33.2873 76.6513L29.1836 93.972L46.6689 89.0467L33.2873 76.6513Z" fill="white"/>
<path d="M9.77734 57.2085C11.1874 64.4504 17.5638 80.23 31.7827 85.421" stroke="white" stroke-width="2.51969"/>
<path fill-rule="evenodd" clip-rule="evenodd" d="M63.3966 55.6481C67.3001 53.3258 69.1283 50.474 69.1283 47.8111C69.1283 45.1492 67.3001 42.2974 63.3966 39.9751C59.5464 37.6846 54.0635 36.1857 47.8733 36.1857C41.6821 36.1857 36.1993 37.6846 32.3491 39.9751C28.4456 42.2974 26.6173 45.1492 26.6173 47.8121C26.6173 50.474 28.4456 53.3258 32.3491 55.6481C36.1993 57.9385 41.6821 59.4374 47.8733 59.4374C54.0635 59.4374 59.5473 57.9385 63.3966 55.6481ZM47.8733 61.9562C61.0032 61.9562 71.648 55.6237 71.648 47.8121C71.648 39.9994 61.0032 33.667 47.8733 33.667C34.7425 33.667 24.0977 39.9994 24.0977 47.8111C24.0977 55.6237 34.7434 61.9562 47.8733 61.9562Z" fill="white"/>
<path d="M53.7661 43.4079L53.157 45.7283H41.9648L42.5655 43.4079H53.7661ZM47.9483 56.2608L42.2399 49.468L42.2483 47.3815H45.0693C45.6981 47.3815 46.2239 47.2636 46.6468 47.0297C47.0697 46.7958 47.386 46.4796 47.5984 46.0791C47.8098 45.6777 47.9183 45.2221 47.924 44.7103C47.9183 43.9421 47.6929 43.3162 47.2475 42.8324C46.8077 42.3422 46.0817 42.098 45.0693 42.098H41.9648L42.6488 39.1685H45.0693C46.4877 39.1685 47.6704 39.3827 48.6154 39.8103C49.5679 40.2342 50.2799 40.8376 50.7524 41.6217C51.2315 42.4067 51.4729 43.3414 51.4794 44.4258C51.4738 45.3896 51.3119 46.2288 50.9947 46.9465C50.6784 47.6702 50.1668 48.2915 49.5174 48.741C48.8502 49.2201 47.9792 49.5756 46.905 49.8095L46.7722 49.8591L51.8799 56.1111V56.2608H47.9483ZM53.783 39.1685L53.1561 41.5216H43.9428L44.5687 39.1685H53.783Z" fill="white"/>
</svg>
