<svg width="44" height="42" viewBox="0 0 44 42" fill="none" xmlns="http://www.w3.org/2000/svg">
<g clip-path="url(#clip0_303_1137)">
<path d="M10.2635 18.0908H7.03813C6.45184 18.0908 5.97656 18.5661 5.97656 19.1524V29.0964C5.97656 29.6826 6.45184 30.1579 7.03813 30.1579H10.2635C10.8498 30.1579 11.3251 29.6826 11.3251 29.0964V19.1524C11.3251 18.5661 10.8498 18.0908 10.2635 18.0908Z" fill="white"/>
<path d="M0.614317 14.9705V11.3535C0.614317 10.8406 0.614317 10.5762 1.01991 10.3583C6.79251 7.25756 18.4389 0.984606 18.8438 0.698815C19.2487 0.413025 19.8074 0.579736 20.0361 0.698815C25.3402 3.55548 36.1722 9.3939 37.0677 9.89431C37.9632 10.3947 38.208 10.931 38.2185 11.1366V14.9268C38.2185 16.3751 37.5019 16.7293 37.1436 16.7254H36.2498H2.26468C0.832267 16.7254 0.567599 15.5554 0.614317 14.9705Z" fill="white"/>
<path fill-rule="evenodd" clip-rule="evenodd" d="M19.4857 31.5196L1.68656 31.5195C1.10028 31.5195 0.625 31.9948 0.625 32.5811V37.0999C0.625 37.6862 1.10027 38.1614 1.68656 38.1614L22.2139 38.1615C20.7282 36.3001 19.7492 34.0165 19.4857 31.5196Z" fill="white"/>
<path fill-rule="evenodd" clip-rule="evenodd" d="M22.1102 22.2846V19.1504C22.1102 18.5641 21.6349 18.0889 21.0487 18.0889H17.8233C17.237 18.0889 16.7617 18.5641 16.7617 19.1504V29.0944C16.7617 29.6807 17.237 30.156 17.8232 30.156H19.4158C19.4158 27.1899 20.4214 24.4587 22.1102 22.2846Z" fill="white"/>
<path d="M43.5947 30.1567C43.5947 36.1286 38.7536 40.9697 32.7817 40.9697C26.8099 40.9697 21.9688 36.1286 21.9688 30.1567C21.9688 24.1849 26.8099 19.3438 32.7817 19.3438C38.7536 19.3438 43.5947 24.1849 43.5947 30.1567Z" fill="#6778E3"/>
<mask id="mask0_303_1137" style="mask-type:luminance" maskUnits="userSpaceOnUse" x="25" y="22" width="16" height="16">
<path d="M40.0866 22.8486H25.4727V37.4625H40.0866V22.8486Z" fill="white"/>
</mask>
<g mask="url(#mask0_303_1137)">
<path d="M32.7798 31.9826C33.7887 31.9826 34.6066 31.1647 34.6066 30.1558C34.6066 29.147 33.7887 28.3291 32.7798 28.3291C31.7709 28.3291 30.9531 29.147 30.9531 30.1558C30.9531 31.1647 31.7709 31.9826 32.7798 31.9826Z" fill="white"/>
<path d="M39.6026 30.0011C39.0655 28.6117 38.133 27.4101 36.9204 26.5449C35.7078 25.6797 34.2683 25.1888 32.7797 25.1328C31.2912 25.1888 29.8516 25.6797 28.6391 26.5449C27.4265 27.4101 26.494 28.6117 25.9569 30.0011C25.9206 30.1014 25.9206 30.2113 25.9569 30.3116C26.494 31.701 27.4265 32.9026 28.6391 33.7678C29.8516 34.633 31.2912 35.1239 32.7797 35.1799C34.2683 35.1239 35.7078 34.633 36.9204 33.7678C38.133 32.9026 39.0655 31.701 39.6026 30.3116C39.6389 30.2113 39.6389 30.1014 39.6026 30.0011ZM32.7797 33.1248C32.1926 33.1248 31.6187 32.9507 31.1306 32.6245C30.6424 32.2984 30.2619 31.8347 30.0372 31.2923C29.8126 30.7499 29.7538 30.1531 29.8683 29.5772C29.9829 29.0014 30.2656 28.4725 30.6807 28.0573C31.0959 27.6422 31.6248 27.3595 32.2006 27.2449C32.7764 27.1304 33.3733 27.1892 33.9157 27.4139C34.4581 27.6385 34.9217 28.019 35.2479 28.5072C35.5741 28.9953 35.7482 29.5692 35.7482 30.1564C35.747 30.9433 35.4339 31.6976 34.8774 32.254C34.321 32.8105 33.5667 33.1236 32.7797 33.1248Z" fill="white"/>
</g>
</g>
<defs>
<clipPath id="clip0_303_1137">
<rect width="44" height="41" fill="white" transform="translate(0 0.5)"/>
</clipPath>
</defs>
</svg>
